<svg width="29" height="29" viewBox="0 0 29 29" fill="none" xmlns="http://www.w3.org/2000/svg">
<path d="M21.1807 17.6492C21.1807 18.8672 21.5272 19.3529 22.4335 19.3529C24.4533 19.3529 25.7395 16.7792 25.7395 12.4988C25.7395 5.95635 20.9719 2.82435 15.0196 2.82435C8.89627 2.82435 3.32682 6.93075 3.32682 14.6912C3.32682 22.1036 8.19882 26.1404 15.6808 26.1404C18.2212 26.1404 19.9264 25.862 22.535 24.992L23.0947 27.3221C20.5195 28.1588 17.7674 28.4009 15.646 28.4009C5.83242 28.4009 0.576172 23.0069 0.576172 14.6897C0.576172 6.3029 6.66762 0.595703 15.0544 0.595703C23.7892 0.595703 28.4162 5.8157 28.4162 12.2189C28.4162 17.6477 26.7124 21.7889 21.3532 21.7889C18.9158 21.7889 17.3164 20.8145 17.1076 18.6555C16.4812 21.0567 14.8108 21.7889 12.5474 21.7889C9.51977 21.7889 6.97937 19.4559 6.97937 14.7593C6.97937 10.0265 9.20802 7.1033 13.21 7.1033C15.3328 7.1033 16.6552 7.9385 17.2439 9.2609L18.2546 7.4165H21.1778V17.6492H21.1807V17.6492ZM16.9017 13.0556C16.9017 11.143 15.4735 10.3412 14.2903 10.3412C13.0027 10.3412 11.5773 11.3837 11.5773 14.4476C11.5773 16.8836 12.6561 18.2408 14.2903 18.2408C15.4387 18.2408 16.9017 17.51 16.9017 15.4916V13.0556Z" fill="#EDE9D0"/>
</svg>
