<svg width="64" height="13" viewBox="0 0 64 13" fill="none" xmlns="http://www.w3.org/2000/svg">
<g clip-path="url(#clip0_146_35)">
<path d="M13.1172 4.10587H14.035V3.1409C14.035 1.97532 14.6238 1.21094 15.7985 1.21094L16.3872 1.33251V2.49808L15.7624 2.37651C15.3944 2.37651 15.2486 2.61965 15.2486 3.02084V4.10587H16.4233V5.27145H15.2472V10.0963H14.0725V5.27145H13.1172V4.10587ZM19.3989 3.98582C20.9055 3.98582 22.2649 5.27145 22.2649 7.12238C22.2649 8.97332 20.943 10.2574 19.3989 10.2574C17.8549 10.2574 16.5344 8.9718 16.5344 7.12238C16.5344 5.23194 17.8924 3.98582 19.3989 3.98582V3.98582ZM19.3989 9.09185C20.5014 9.09185 21.0888 8.20741 21.0888 7.12238C21.0888 6.03735 20.5014 5.15139 19.3989 5.15139C18.2964 5.15139 17.7091 6.03583 17.7091 7.12238C17.7091 8.16638 18.2978 9.09185 19.3989 9.09185ZM25.6085 3.98582C27.1151 3.98582 28.4731 5.27145 28.4731 7.12238C28.4731 8.97332 27.1512 10.2574 25.6085 10.2574C24.0658 10.2574 22.7426 8.9718 22.7426 7.12238C22.7787 5.23194 24.1019 3.98582 25.6085 3.98582V3.98582ZM25.6085 9.09185C26.7096 9.09185 27.2984 8.20741 27.2984 7.12238C27.2984 6.03735 26.7096 5.15139 25.6085 5.15139C24.5074 5.15139 23.9186 6.03583 23.9186 7.12238C23.9186 8.16638 24.506 9.09185 25.6085 9.09185ZM34.5729 10.0963H33.5065L33.3954 9.5751L33.3232 9.49456L33.2496 9.5751C32.8817 9.97629 32.3318 10.2179 31.7431 10.2179C30.2365 10.2179 28.9521 8.93077 28.9521 7.08135C28.9521 5.23194 30.2365 3.94479 31.7431 3.94479C32.3318 3.94479 32.9192 4.18794 33.2496 4.58912L33.3232 4.66966L33.3968 4.58912V1.25197H34.5729V10.0963ZM31.8167 5.11188C30.7142 5.11188 30.1268 5.99632 30.1268 7.08135C30.1268 8.16638 30.7142 9.05234 31.8167 9.05234C32.8095 9.05234 33.5065 8.16638 33.5065 7.08135C33.5065 6.03583 32.8095 5.11188 31.8167 5.11188V5.11188ZM35.7476 4.10587H36.814L36.9237 4.62863L36.9973 4.70918L37.0709 4.62863C37.4375 4.22745 37.9887 3.98582 38.5775 3.98582C40.0826 3.98582 41.3684 5.27145 41.3684 7.12238C41.3684 8.97332 40.0826 10.2574 38.5775 10.2574C37.9887 10.2574 37.4014 10.0173 37.0709 9.61461L36.9973 9.53407L36.9237 9.61461V12.8317H35.7851V4.10587H35.7476ZM38.4664 9.09185C39.5689 9.09185 40.1562 8.20741 40.1562 7.12238C40.1562 6.03735 39.5689 5.15139 38.4664 5.15139C37.475 5.15139 36.7765 6.03583 36.7765 7.12238C36.7765 8.16638 37.475 9.09185 38.4664 9.09185ZM44.2719 6.358H45.2258V6.07686C45.2258 5.35199 44.7856 5.03134 44.1608 5.03134C43.647 5.03134 43.3166 5.31248 43.1333 5.83524L42.1044 5.59361C42.3238 4.58912 43.1319 3.94479 44.1983 3.94479C45.6674 3.94479 46.4019 4.75021 46.4019 6.31697V10.0568H45.4466L45.3355 9.25141C44.9689 9.85624 44.3816 10.1374 43.6095 10.1374C42.6181 10.1374 41.9197 9.49456 41.9197 8.28796C41.8836 7.12238 42.8389 6.358 44.2719 6.358V6.358ZM43.7581 9.09185C44.1247 9.09185 44.4913 8.97028 44.7495 8.68914C45.0425 8.40801 45.1897 8.04633 45.1897 7.5646V7.44303H44.1983C43.4998 7.44303 43.0597 7.80471 43.0597 8.3685C43.0597 8.76968 43.3166 9.09185 43.7567 9.09185H43.7581ZM47.4308 4.10587H48.4958L48.6069 4.62863L48.6805 4.70918L48.7527 4.62863C48.9749 4.22745 49.5622 3.98582 50.0399 3.98582C51.4354 3.98582 52.2435 4.99031 52.2435 6.39751V10.0963H51.0674V6.39751C51.0313 5.59361 50.6647 5.11188 49.8927 5.11188C49.1943 5.11188 48.643 5.71519 48.6069 6.47957V10.0963H47.4308V4.10587ZM58.5252 10.0963H57.4602L57.3492 9.5751L57.277 9.49456L57.2034 9.5751C56.8354 9.97629 56.2841 10.2179 55.6968 10.2179C54.1902 10.2179 52.9058 8.93077 52.9058 7.08135C52.9058 5.23194 54.1902 3.94479 55.6968 3.94479C56.2841 3.94479 56.8729 4.18794 57.2034 4.58912L57.277 4.66966L57.3505 4.58912V1.25197H58.5252V10.0963ZM55.8065 5.11188C54.7054 5.11188 54.1166 5.99632 54.1166 7.08135C54.1166 8.16638 54.7054 9.05234 55.8065 9.05234C56.7993 9.05234 57.4977 8.16638 57.4977 7.08135C57.4977 6.03583 56.7993 5.11188 55.8065 5.11188V5.11188ZM61.8689 6.358H62.8242V6.07686C62.8242 5.35199 62.384 5.03134 61.7592 5.03134C61.2454 5.03134 60.9135 5.31248 60.7303 5.83524L59.7027 5.59361C59.9221 4.58912 60.7302 3.94479 61.7953 3.94479C63.2657 3.94479 64.0003 4.75021 64.0003 6.31697V10.0568H63.0449L62.9339 9.25141C62.5673 9.85624 61.9786 10.1374 61.2079 10.1374C60.2151 10.1374 59.5181 9.49456 59.5181 8.28796C59.4806 7.12238 60.3998 6.358 61.8689 6.358V6.358ZM61.3551 9.09185C61.7217 9.09185 62.0896 8.97028 62.3465 8.68914C62.6409 8.40801 62.7881 8.04633 62.7881 7.5646V7.44303H61.7953C61.0968 7.44303 60.6567 7.80471 60.6567 8.3685C60.6567 8.76968 60.9135 9.09185 61.3551 9.09185V9.09185Z" fill="#FF006C"/>
<path d="M4.9954 8.20854C5.65773 8.20854 6.20898 7.68578 6.20898 7.04297H3.7832C3.7832 7.68578 4.29696 8.20854 4.99679 8.20854H4.9954Z" fill="#FF006C"/>
<path d="M9.07426 2.65985C9.36863 2.41822 9.51581 2.01551 9.51581 1.5733C9.51581 0.769401 8.92846 0.166099 8.19253 0.166099C7.71626 0.166099 7.31081 0.407723 7.09142 0.810431C6.42763 0.457557 5.69792 0.278584 4.96001 0.287671C4.22363 0.289548 3.49658 0.467986 2.82999 0.810431C2.60782 0.406204 2.20514 0.166099 1.72749 0.166099C1.38187 0.162026 1.0488 0.307676 0.800906 0.571286C0.553017 0.834897 0.410418 1.19508 0.404207 1.5733C0.407283 1.77759 0.447972 1.97911 0.523841 2.1658C0.599709 2.3525 0.709199 2.52053 0.845763 2.65985C0.287823 3.54604 -0.00741244 4.59867 0.000141416 5.67484C0.000509272 7.1145 0.523139 8.4951 1.45318 9.51324C2.38321 10.5314 3.64456 11.1037 4.96001 11.1046C6.27522 11.1037 7.53636 10.5316 8.46635 9.51378C9.39635 8.49597 9.91914 7.11576 9.91988 5.67636C9.91988 4.55181 9.62551 3.50477 9.07426 2.66137V2.65985ZM4.9975 10.6608C2.49674 10.6608 0.441697 8.40869 0.441697 5.67636C0.441697 4.62932 0.734679 3.66434 1.21234 2.86044C1.65694 2.12477 2.28077 1.53994 3.01327 1.17211C3.60063 0.849942 4.29906 0.688859 4.99611 0.688859C5.69316 0.688859 6.39159 0.849942 6.97895 1.17211C7.71487 1.5733 8.30223 2.13709 8.77988 2.86044C9.25754 3.66586 9.55053 4.62932 9.55053 5.67484C9.55053 8.41021 7.4941 10.6593 4.99611 10.6593L4.9975 10.6608Z" fill="#FF006C"/>
<path d="M4.99594 6.72045C5.07092 6.75996 5.84295 6.43931 5.84295 6.03661C5.84295 5.79498 5.21811 5.75547 4.99594 5.75547C4.77377 5.75547 4.15171 5.79498 4.15171 6.03661C4.1156 6.43931 4.92373 6.75996 4.99733 6.72045H4.99594ZM7.86189 3.34226C7.42172 3.02162 6.4664 2.86053 6.09844 3.38329C6.09844 3.38329 5.62078 3.94557 6.09844 4.50784C6.5761 5.07011 6.90657 5.63542 7.01765 6.07764C7.12874 6.55937 7.31064 6.72045 7.6425 6.72045C7.97436 6.72045 8.63392 6.15818 8.74361 5.23271C8.77142 4.85909 8.70368 4.48438 8.54796 4.1505C8.39223 3.81663 8.15468 3.53677 7.86189 3.34226V3.34226ZM6.87047 4.50936C6.72328 4.50936 6.61359 4.38778 6.61359 4.22822C6.61359 4.06866 6.72467 3.94556 6.87047 3.94556C7.01627 3.94556 7.12735 4.06714 7.12735 4.22822C7.12735 4.3893 7.01627 4.50936 6.87047 4.50936ZM3.85734 3.38329C3.49076 2.86053 2.53544 3.02162 2.09389 3.34226C1.65233 3.66291 1.13857 4.30724 1.21217 5.23271C1.28576 6.15818 1.94809 6.72045 2.31467 6.72045C2.64514 6.72045 2.82843 6.51985 2.93951 6.07764C3.05059 5.59439 3.41717 5.07163 3.85734 4.50936C4.33499 3.90605 3.85734 3.38329 3.85734 3.38329ZM3.16029 4.50784C3.0131 4.50784 2.90202 4.38778 2.90202 4.22822C2.90202 4.06866 3.0131 3.94556 3.16029 3.94556C3.30747 3.94556 3.41717 4.06714 3.41717 4.22822C3.41717 4.3893 3.30608 4.50936 3.16029 4.50936V4.50784Z" fill="#FF006C"/>
</g>
<defs>
<clipPath id="clip0_146_35">
<rect width="64" height="13" fill="white"/>
</clipPath>
</defs>
</svg>
