<svg width="83" height="20" viewBox="0 0 83 20" fill="none" xmlns="http://www.w3.org/2000/svg">
<path d="M18.2617 7.31745H19.3746V6.36365C19.3746 5.21115 20.0869 4.45605 21.5114 4.45605L22.2236 4.57528V5.72779L21.4668 5.60856C21.0217 5.60856 20.8436 5.84701 20.8436 6.24443V7.31745H22.2681V8.46996H20.8436V13.239H19.4191V8.46996H18.2617V7.31745Z" fill="#D70F64"/>
<path d="M25.8746 7.19824C27.6997 7.19824 29.3468 8.46997 29.3468 10.2981C29.3468 12.1262 27.7442 13.3979 25.8746 13.3979C24.0049 13.3979 22.4023 12.1262 22.4023 10.2981C22.4023 8.43023 24.0494 7.19824 25.8746 7.19824ZM25.8746 12.2454C27.21 12.2454 27.9223 11.3711 27.9223 10.2981C27.9223 9.22506 27.21 8.35075 25.8746 8.35075C24.5391 8.35075 23.8268 9.22506 23.8268 10.2981C23.8268 11.3314 24.5391 12.2454 25.8746 12.2454V12.2454Z" fill="#D70F64"/>
<path d="M33.396 7.19824C35.2212 7.19824 36.8683 8.46997 36.8683 10.2981C36.8683 12.1262 35.2657 13.3979 33.396 13.3979C31.5264 13.3979 29.9238 12.1262 29.9238 10.2981C29.9683 8.43023 31.5709 7.19824 33.396 7.19824ZM33.396 12.2454C34.7315 12.2454 35.4438 11.3711 35.4438 10.2981C35.4438 9.22506 34.7315 8.35075 33.396 8.35075C32.0606 8.35075 31.3483 9.22506 31.3483 10.2981C31.3483 11.3314 32.0606 12.2454 33.396 12.2454V12.2454Z" fill="#D70F64"/>
<path d="M44.2581 13.2392H42.9672L42.8336 12.7226L42.7446 12.6431L42.6556 12.7226C42.2104 13.12 41.5427 13.3585 40.8304 13.3585C39.0053 13.3585 37.4473 12.0867 37.4473 10.2586C37.4473 8.43051 39.0053 7.15878 40.8304 7.15878C41.5427 7.15878 42.2549 7.39723 42.6556 7.79465L42.7446 7.87413L42.8336 7.79465V4.49609H44.2581V13.2392ZM40.9195 8.31129C39.584 8.31129 38.8718 9.1856 38.8718 10.2586C38.8718 11.3317 39.584 12.206 40.9195 12.206C42.1214 12.206 42.9672 11.3317 42.9672 10.2586C42.9672 9.22535 42.1214 8.31129 40.9195 8.31129V8.31129Z" fill="#D70F64"/>
<path d="M45.6836 7.31747H46.9745L47.1081 7.83411L47.1971 7.91359L47.2862 7.83411C47.7313 7.43669 48.399 7.19824 49.1113 7.19824C50.9364 7.19824 52.4945 8.46997 52.4945 10.2981C52.4945 12.1262 50.9364 13.3979 49.1113 13.3979C48.399 13.3979 47.6868 13.1595 47.2862 12.7621L47.1971 12.6826L47.1081 12.7621V15.9414H45.7281V7.31747H45.6836ZM48.9777 12.2454C50.3132 12.2454 51.0255 11.3711 51.0255 10.2981C51.0255 9.22506 50.3132 8.35075 48.9777 8.35075C47.7758 8.35075 46.93 9.22506 46.93 10.2981C46.93 11.3314 47.7758 12.2454 48.9777 12.2454Z" fill="#D70F64"/>
<path d="M56.0104 9.5427H57.1678V9.26451C57.1678 8.54916 56.6336 8.23123 55.8768 8.23123C55.2536 8.23123 54.853 8.50942 54.6304 9.02606L53.384 8.78761C53.6511 7.79407 54.6304 7.1582 55.9214 7.1582C57.702 7.1582 58.5923 7.95304 58.5923 9.50296V13.1989H57.4349L57.3013 12.4041C56.8562 13.0002 56.1439 13.2784 55.2091 13.2784C54.0072 13.2784 53.1614 12.6425 53.1614 11.4503C53.1169 10.2978 54.2743 9.5427 56.0104 9.5427V9.5427ZM55.3872 12.2451C55.8323 12.2451 56.2775 12.1259 56.5891 11.8477C56.9452 11.5695 57.1233 11.2118 57.1233 10.7349V10.6157H55.9214C55.0756 10.6157 54.5414 10.9734 54.5414 11.5298C54.5414 11.9272 54.853 12.2451 55.3872 12.2451V12.2451Z" fill="#D70F64"/>
<path d="M59.8398 7.31747H61.1308L61.2643 7.83411L61.3534 7.91359L61.4424 7.83411C61.7095 7.43669 62.4217 7.19824 63.0004 7.19824C64.692 7.19824 65.6714 8.19178 65.6714 9.58274V13.239H64.2469V9.58274C64.2024 8.78791 63.7572 8.31101 62.8224 8.31101C61.9766 8.31101 61.3089 8.90713 61.2643 9.66222V13.239H59.8398V7.31747Z" fill="#D70F64"/>
<path d="M73.2835 13.2392H71.9926L71.859 12.7226L71.77 12.6431L71.681 12.7226C71.2358 13.12 70.5681 13.3585 69.8558 13.3585C68.0307 13.3585 66.4727 12.0867 66.4727 10.2586C66.4727 8.43051 68.0307 7.15878 69.8558 7.15878C70.5681 7.15878 71.2803 7.39723 71.681 7.79465L71.77 7.87413L71.859 7.79465V4.49609H73.2835V13.2392ZM69.9894 8.31129C68.6539 8.31129 67.9417 9.1856 67.9417 10.2586C67.9417 11.3317 68.6539 12.206 69.9894 12.206C71.1913 12.206 72.0371 11.3317 72.0371 10.2586C72.0371 9.22535 71.1913 8.31129 69.9894 8.31129Z" fill="#D70F64"/>
<path d="M77.3347 9.5427H78.4921V9.26451C78.4921 8.54916 77.9579 8.23123 77.2011 8.23123C76.5779 8.23123 76.1773 8.50942 75.9547 9.02606L74.7082 8.78761C74.9753 7.79407 75.9547 7.1582 77.2456 7.1582C79.0263 7.1582 79.9166 7.95304 79.9166 9.50296V13.1989H78.7592L78.6256 12.4041C78.1805 13.0002 77.4682 13.2784 76.5334 13.2784C75.3315 13.2784 74.4857 12.6425 74.4857 11.4503C74.4411 10.2978 75.554 9.5427 77.3347 9.5427V9.5427ZM76.7114 12.2451C77.1566 12.2451 77.6018 12.1259 77.9134 11.8477C78.2695 11.5695 78.4476 11.2118 78.4476 10.7349V10.6157H77.2456C76.3998 10.6157 75.8656 10.9734 75.8656 11.5298C75.8656 11.9272 76.1773 12.2451 76.7114 12.2451V12.2451Z" fill="#D70F64"/>
<path d="M8.42409 11.3713C9.22536 11.3713 9.8931 10.8546 9.8931 10.2188H6.95508C6.95508 10.8546 7.57829 11.3713 8.42409 11.3713V11.3713Z" fill="#D70F64"/>
<path d="M13.3645 5.88683C13.7206 5.64838 13.8987 5.25097 13.8987 4.81381C13.8987 4.01898 13.1864 3.42285 12.2961 3.42285C11.7174 3.42285 11.2277 3.6613 10.9606 4.05872C10.1594 3.70104 9.26905 3.54208 8.37874 3.54208C7.44391 3.54208 6.5536 3.74078 5.79684 4.05872C5.52974 3.6613 5.04007 3.42285 4.46137 3.42285C3.57106 3.42285 2.85881 4.05872 2.85881 4.81381C2.85881 5.25097 3.08139 5.60864 3.393 5.88683C2.72527 6.76115 2.36914 7.75469 2.36914 8.86745C2.36914 11.8083 5.04007 14.2326 8.37874 14.2326C11.6729 14.2326 14.3883 11.8481 14.3883 8.86745C14.3883 7.75469 14.0322 6.72141 13.3645 5.88683V5.88683ZM8.42325 13.7954C5.39619 13.7954 2.90333 11.5699 2.90333 8.86745C2.90333 7.83417 3.25945 6.88037 3.83815 6.08554C4.37234 5.37019 5.1291 4.77407 6.01941 4.41639C6.73166 4.09846 7.57745 3.93949 8.42325 3.93949C9.26904 3.93949 10.1148 4.09846 10.8271 4.41639C11.7174 4.81381 12.4296 5.37019 13.0084 6.08554C13.5871 6.88037 13.9432 7.83417 13.9432 8.86745C13.9432 11.5699 11.4503 13.7954 8.42325 13.7954Z" fill="#D70F64"/>
<path d="M8.42376 9.90106C8.51279 9.94081 9.44762 9.62287 9.44762 9.22546C9.44762 8.98701 8.69085 8.94727 8.42376 8.94727C8.15667 8.94727 7.39991 8.98701 7.39991 9.22546C7.35539 9.62287 8.33473 9.94081 8.42376 9.90106Z" fill="#D70F64"/>
<path d="M11.8959 6.56225C11.3617 6.24431 10.2043 6.08535 9.75915 6.60199C9.75915 6.60199 9.18045 7.15837 9.75915 7.71475C10.3379 8.27114 10.7385 8.82752 10.872 9.26468C11.0056 9.74158 11.2282 9.90054 11.6288 9.90054C12.0295 9.90054 12.8307 9.34416 12.9643 8.4301C13.0533 7.51605 12.4301 6.84044 11.8959 6.56225V6.56225ZM10.694 7.71475C10.5159 7.71475 10.3824 7.59553 10.3824 7.43656C10.3824 7.2776 10.5159 7.15837 10.694 7.15837C10.872 7.15837 11.0056 7.2776 11.0056 7.43656C11.0056 7.59553 10.872 7.71475 10.694 7.71475Z" fill="#D70F64"/>
<path d="M7.04375 6.60199C6.59859 6.08535 5.44119 6.24431 4.907 6.56225C4.37282 6.88018 3.7496 7.51605 3.83863 8.4301C3.92766 9.34416 4.72894 9.90054 5.1741 9.90054C5.57474 9.90054 5.79731 9.70183 5.93086 9.26468C6.06441 8.78778 6.50956 8.27114 7.04375 7.71475C7.62245 7.11863 7.04375 6.60199 7.04375 6.60199V6.60199ZM6.19795 7.71475C6.01989 7.71475 5.88634 7.59553 5.88634 7.43656C5.88634 7.2776 6.01989 7.15837 6.19795 7.15837C6.37601 7.15837 6.50956 7.2776 6.50956 7.43656C6.50956 7.59553 6.37601 7.71475 6.19795 7.71475Z" fill="#D70F64"/>
</svg>
