<svg width="101" height="102" viewBox="0 0 101 102" fill="none" xmlns="http://www.w3.org/2000/svg">
<path d="M100.496 50.242C100.496 77.7521 78.1908 100.02 50.7285 100.02C23.2243 100.02 0.960938 77.7101 0.960938 50.242C0.960938 22.7319 23.2662 0.463867 50.7285 0.463867C78.1908 0.463867 100.496 22.7319 100.496 50.242Z" fill="white"/>
<path d="M55.7171 21.9771C55.2978 21.8932 53.2014 21.5577 50.7277 21.5577C48.254 21.5577 46.1577 21.8932 45.7384 21.9771C45.4868 22.019 45.403 21.7674 45.5707 21.6416C45.7384 21.5158 50.7277 17.6996 50.7277 17.6996C50.7277 17.6996 55.7171 21.5158 55.8848 21.6416C56.0525 21.7674 55.9686 22.019 55.7171 21.9771ZM47.0801 46.6355C47.0801 46.6355 46.8285 46.7194 46.7446 46.971C47.7928 47.7678 48.5056 49.613 50.6858 49.613C52.866 49.613 53.5788 47.7678 54.6269 46.971C54.5431 46.7194 54.2915 46.6355 54.2915 46.6355C54.2915 46.6355 52.9079 46.971 50.6858 46.971C48.4636 46.971 47.0801 46.6355 47.0801 46.6355ZM50.6858 43.5742C50.0988 43.5742 49.9311 43.3645 49.5538 43.3645C49.1764 43.3645 48.3798 43.7 48.2121 43.9516C48.2121 44.0774 48.2959 44.2032 48.3798 44.329C49.2603 44.4548 49.6795 44.9581 50.6858 44.9581C51.692 44.9581 52.1113 44.4548 52.9918 44.329C53.1176 44.2032 53.1595 44.0774 53.1595 43.9516C52.9918 43.658 52.2371 43.3645 51.8178 43.3645C51.4405 43.3225 51.3147 43.5742 50.6858 43.5742ZM100.411 52.9678C100.328 54.1421 100.244 55.3582 100.118 56.4905C94.4997 57.4131 92.4872 52.4227 86.7012 52.6324C87.0367 53.8485 87.3301 55.1066 87.5398 56.3647C92.3195 56.3647 94.2062 60.8099 99.531 60.1389C99.2375 61.4809 98.902 62.8228 98.5247 64.1648C94.332 64.5841 92.8645 60.4325 88.001 60.5163C88.0429 61.2293 88.0429 61.9002 88.0429 62.6131C88.0429 62.9906 88.0429 63.4099 88.001 63.7874C92.1518 63.7454 93.4934 67.5616 97.4346 67.3939C96.9315 68.7358 96.3864 70.0358 95.7994 71.3359C92.9484 71.1681 91.9841 67.5616 87.7075 67.8552C87.5817 68.7777 87.414 69.7003 87.2044 70.6229C90.9359 70.3713 91.7325 73.8101 94.4158 74.0617C93.745 75.3198 92.9903 76.5359 92.2356 77.7101C90.6424 76.8714 89.2588 74.3133 86.282 74.1456C86.5755 73.181 86.8689 72.2165 87.0786 71.252C84.3952 71.252 81.3765 70.2036 78.8189 67.8971C79.6575 63.1583 72.3202 58.3776 72.3202 54.8969C72.3202 51.1646 74.2069 49.0678 74.2069 43.9935C74.2069 40.2193 72.3621 36.1515 69.6369 33.3837C69.0918 32.8385 68.5468 32.4192 67.9179 31.9998C70.4335 35.145 72.4041 38.8354 72.4041 43.1548C72.4041 47.9355 70.1819 50.4517 70.1819 54.855C70.1819 59.2583 76.6387 63.0744 76.6387 67.6035C76.6387 69.4068 76.0517 71.1262 74.2069 74.5649C77.0999 77.4585 80.8734 79.0102 83.3051 79.0102C84.1018 79.0102 84.521 78.7585 84.8145 78.1714C85.0661 77.6263 85.2757 77.0811 85.4854 76.5359C88.0848 76.6198 89.3007 79.0102 90.7262 79.9747C89.9296 81.0231 89.0911 82.0715 88.2106 83.078C87.2463 81.9876 85.9465 80.1844 84.0179 79.6811C83.6825 80.3521 83.3051 80.9812 82.9278 81.6521C84.563 82.1134 85.695 83.7489 86.5755 84.8393C85.6531 85.8038 84.6468 86.7264 83.6405 87.649C83.0116 86.6845 82.0054 85.4264 80.9153 84.7135L79.6575 86.349C80.6218 86.978 81.4184 88.1522 81.9635 89.0748C80.7895 90.0393 79.5736 90.92 78.3158 91.7587C77.6869 86.6845 70.8108 83.2457 72.6556 77.3746C72.0267 78.423 71.314 79.7231 71.314 81.2747C71.314 85.5102 75.8421 88.9071 76.1775 93.1007C75.2551 93.6458 74.2908 94.191 73.2845 94.6942C73.1168 90.0393 68.3371 84.9651 68.3371 81.1908C68.3371 76.9553 73.9134 72.6778 73.9134 67.6455C73.9134 62.6131 67.4986 59.1324 67.4986 54.7292C67.4986 50.3259 70.2239 47.8097 70.2239 42.1483C70.2239 37.9967 68.2533 33.845 65.2345 31.1611C64.6895 30.6998 64.1863 30.3224 63.5155 29.9869C66.3666 33.4256 68.0436 36.5289 68.0436 41.2677C68.0436 46.5936 64.8991 49.5291 64.8991 54.7292C64.8991 59.9292 71.1882 62.8228 71.1882 67.6455C71.1882 72.4681 65.3184 76.5779 65.3184 81.5683C65.3184 86.0974 70.4754 90.6264 70.5593 95.9943C69.4272 96.4975 68.2952 96.9588 67.1212 97.3362C67.7921 91.9265 61.9642 86.307 61.9642 81.8618C61.9642 77.0392 68.0436 72.8456 68.0436 67.6455C68.0436 62.4454 61.8803 60.0131 61.8803 54.6453C61.8803 49.2775 65.6957 46.3 65.6957 40.387C65.6957 35.774 63.4317 31.6224 60.0775 29.0643C59.9936 29.0223 59.9517 28.9385 59.8678 28.8965C59.5744 28.6449 59.2809 28.9385 59.5324 29.232C61.8803 32.1675 63.1382 35.145 63.1382 39.5483C63.1382 44.958 58.7777 49.3613 58.7777 54.6034C58.7777 60.8099 64.6475 62.5712 64.6475 67.6455C64.6475 72.7197 58.3585 76.7875 58.3585 82.1973C58.3585 87.1877 64.3121 92.7652 63.2639 98.5104C62.09 98.804 60.8741 99.0975 59.6582 99.3072C60.7902 92.1361 54.9624 86.9361 54.9624 82.2392C54.9624 77.165 61.4611 72.5939 61.4611 67.6455C61.4611 62.9486 56.8072 61.4389 56.1782 56.6163C56.0944 55.9453 55.5493 55.484 54.8366 55.6098C53.8723 55.7776 52.6564 56.4066 50.7696 56.4066C48.841 56.4066 47.667 55.7776 46.7027 55.6098C45.9899 55.484 45.4449 55.9872 45.361 56.6163C44.7321 61.4389 40.0782 62.9486 40.0782 67.6455C40.0782 72.6359 46.5769 77.165 46.5769 82.2392C46.5769 86.9361 40.749 92.0942 41.8811 99.3072C40.6652 99.0975 39.4493 98.804 38.2753 98.5104C37.2691 92.7233 43.1808 87.1877 43.1808 82.1973C43.1808 76.7875 36.8917 72.7197 36.8917 67.6455C36.8917 62.5712 42.7616 60.8099 42.7616 54.6034C42.7616 49.3613 38.4011 44.958 38.4011 39.5483C38.4011 35.145 39.6589 32.1675 42.0069 29.232C42.2165 28.9385 41.9649 28.6869 41.6714 28.8965C41.5876 28.9385 41.5457 29.0223 41.4618 29.0643C38.1496 31.6224 35.8436 35.774 35.8436 40.387C35.8436 46.3 39.6589 49.2775 39.6589 54.6453C39.6589 60.0131 33.4956 62.4454 33.4956 67.6455C33.4956 72.8456 39.5751 77.0392 39.5751 81.8618C39.5751 86.307 33.7472 91.8845 34.418 97.3362C33.2441 96.9169 32.112 96.4975 30.98 95.9943C31.0639 90.6264 36.2209 86.0974 36.2209 81.5683C36.2209 76.5779 30.3511 72.5101 30.3511 67.6455C30.3511 62.7809 36.6402 59.9292 36.6402 54.7292C36.6402 49.5291 33.4956 46.5936 33.4956 41.2677C33.4956 36.5289 35.1727 33.4256 38.0238 29.9869C37.3949 30.3224 36.8498 30.6998 36.3048 31.1611C33.286 33.845 31.3154 38.0386 31.3154 42.1483C31.3154 47.8097 34.0407 50.3259 34.0407 54.7292C34.0407 59.1324 27.6258 62.6131 27.6258 67.6455C27.6258 72.6778 33.2022 76.9134 33.2022 81.1908C33.2022 85.007 28.4225 90.0813 28.2547 94.6942C27.2904 94.191 26.3261 93.6878 25.3618 93.1007C25.7391 88.8651 30.2673 85.5102 30.2673 81.2747C30.2673 79.7231 29.5545 78.423 28.9256 77.3746C30.7704 83.2457 23.8943 86.7264 23.2654 91.7587C22.0076 90.92 20.7917 90.0393 19.6178 89.0748C20.1628 88.1522 21.0013 86.978 21.9237 86.349C21.5045 85.8038 21.0433 85.3006 20.6659 84.7135C19.5339 85.3844 18.5696 86.6425 17.9407 87.649C16.9344 86.7683 15.9282 85.8038 15.0058 84.8393C15.8862 83.7489 17.0183 82.0715 18.6534 81.6521C18.2761 81.0231 17.8987 80.3521 17.5633 79.6811C15.6347 80.1844 14.3349 81.9876 13.3706 83.078C12.4901 82.0715 11.6516 81.065 10.855 79.9747C12.3224 79.0102 13.4964 76.6617 16.1378 76.5359C16.3474 77.0811 16.599 77.6263 16.8086 78.1714C17.1021 78.8005 17.5214 79.0102 18.318 79.0102C20.7498 79.0102 24.5232 77.4166 27.4162 74.5649C25.5295 71.1262 24.9844 69.4068 24.9844 67.6035C24.9844 63.0744 31.4412 59.2583 31.4412 54.855C31.4412 50.4517 29.2191 47.9355 29.2191 43.1548C29.2191 38.8354 31.1477 35.145 33.7053 31.9998C33.0764 32.3772 32.5313 32.8385 31.9863 33.3837C29.2191 36.1515 27.4162 40.2612 27.4162 43.9935C27.4162 49.0678 29.3029 51.1227 29.3029 54.8969C29.3029 58.3776 21.9657 63.1583 22.8042 67.8971C20.2467 70.2455 17.186 71.252 14.5026 71.252C14.7542 72.2165 15.0058 73.181 15.2993 74.1456C12.2805 74.3133 10.8969 76.8714 9.34559 77.7101C8.54898 76.5359 7.83621 75.3198 7.16538 74.0617C9.84872 73.7681 10.6453 70.3294 14.3769 70.6229C14.1672 69.7003 13.9995 68.7777 13.8737 67.8552C9.55523 67.5616 8.5909 71.21 5.78178 71.3359C5.1948 70.0358 4.64975 68.7358 4.14662 67.3939C8.08778 67.5616 9.42945 63.7454 13.5383 63.7874V62.6131C13.5383 61.9002 13.5802 61.2293 13.5802 60.5163C8.71668 60.3905 7.24923 64.5841 3.05651 64.1648C2.67917 62.8648 2.34375 61.5228 2.05026 60.1389C7.33309 60.8099 9.26174 56.3227 14.0414 56.3647C14.2511 55.1066 14.5446 53.8485 14.88 52.6324C9.09403 52.3807 7.08152 57.4131 1.46328 56.4905C1.29557 55.3163 1.21172 54.1421 1.12786 52.9678C7.6685 53.6808 10.1422 48.3129 16.0959 48.9839C16.6409 47.5581 17.3118 46.1742 18.0664 44.8322C10.6034 43.5322 8.04585 49.7807 1.08594 48.8162C1.67292 21.9771 23.6847 0.463867 50.6858 0.463867C77.7288 0.463867 99.6987 21.9771 100.453 48.8581C93.4934 49.8226 90.9359 43.5742 83.4728 44.8742C84.2275 46.2161 84.8564 47.6 85.4434 49.0259C91.3971 48.3129 93.8289 53.7227 100.411 52.9678ZM29.3029 32.0837C25.6553 30.574 21.211 30.9514 17.3956 33.3837C16.8086 29.8611 14.88 26.7159 12.1547 24.8287C11.7774 24.5771 11.4 24.8287 11.4 25.2481C11.987 32.7127 7.62658 39.1709 2.2599 44.8742C7.79429 46.5516 12.4901 39.4225 19.6178 41.8967C22.2592 38.0805 25.5295 34.7257 29.3029 32.0837ZM50.6858 27.5965C46.0738 27.5965 42.1746 30.1966 41.1683 33.5934C41.0845 33.845 41.2102 34.0127 41.5037 33.8869C42.3423 33.5095 43.2647 33.3418 44.3129 33.3418C46.1996 33.3418 47.8767 34.0547 48.841 35.2289C49.2603 36.6547 49.3022 38.7515 48.7991 39.9257C48.0444 39.758 47.7509 39.1709 46.9962 39.1709C46.2415 39.1709 45.6545 39.716 44.3548 39.716C43.055 39.716 42.9293 39.087 42.0907 39.087C41.0845 39.087 40.9168 40.0935 40.9168 41.2677C40.9168 46.4258 45.6545 53.513 50.6858 53.513C55.7171 53.513 60.4548 46.4258 60.4548 41.2677C60.4548 40.0935 60.2033 39.1289 59.197 39.0031C58.6939 39.3806 58.1908 39.716 57.0168 39.716C55.717 39.716 55.3816 39.1709 54.6269 39.1709C53.7045 39.1709 53.7884 41.0999 52.6983 41.2257C51.9855 39.5064 51.9436 37.2418 52.5306 35.2708C53.4949 34.0547 55.172 33.3837 57.0587 33.3837C58.065 33.3837 59.0293 33.5514 59.8678 33.9289C60.1613 34.0547 60.2871 33.8869 60.2033 33.6353C59.197 30.1966 55.2978 27.5965 50.6858 27.5965ZM58.065 34.9773C56.9329 34.9773 55.6751 35.3128 54.8366 36.2353C54.7527 36.487 54.7527 36.8644 54.8785 37.0741C56.891 36.4031 58.652 36.3612 59.5324 37.3257C59.9936 36.9063 60.1194 36.5289 60.1194 36.1095C60.1194 35.4386 59.4066 34.9773 58.065 34.9773ZM41.8811 37.3257C42.8454 36.3612 44.8998 36.4031 46.9962 37.1579C47.0801 36.1095 45.1933 34.9353 43.3066 34.9353C41.923 34.9353 41.2522 35.3966 41.2522 36.0676C41.2941 36.5289 41.4199 36.9063 41.8811 37.3257ZM73.7457 19.8803C70.0981 20.1319 66.9116 21.39 64.354 23.4868C65.4442 20.3835 66.8278 17.6996 68.5887 15.0996C63.9348 15.6028 60.0775 17.2802 57.2264 20.2158L55.0043 14.3866L59.9098 10.0253L53.3272 9.564L50.6858 3.44133L48.0444 9.564L41.4618 10.0253L46.3673 14.3866L44.1451 20.2158C41.2941 17.3222 37.4368 15.6028 32.7829 15.0996C34.5438 17.6996 35.9274 20.4254 37.0175 23.4868C34.46 21.39 31.2735 20.1319 27.6258 19.8803C29.8061 22.69 31.7347 25.7094 33.2022 28.9385C33.3699 29.3159 33.7053 29.4417 34.0826 29.232C39.072 26.7578 44.6902 25.332 50.6858 25.332C56.6395 25.332 62.2577 26.7159 67.2889 29.232C67.6663 29.4417 68.0017 29.3159 68.1694 28.9385C69.5949 25.7094 71.5655 22.69 73.7457 19.8803ZM81.7119 41.8967C88.8815 39.4225 93.5773 46.5097 99.1117 44.8742C93.745 39.1709 89.3846 32.7127 89.9716 25.2481C90.0135 24.8287 89.5942 24.5771 89.2588 24.8287C86.5335 26.7159 84.6049 29.8611 84.0179 33.3837C80.2445 30.9514 75.8002 30.6159 72.1106 32.0837C75.884 34.7257 79.1124 38.0805 81.7119 41.8967Z" fill="#00643C"/>
<path d="M80.0363 96.4552H78.2754V95.7842H82.5939V96.4552H80.791V101.236H80.0363V96.4552Z" fill="#00643C"/>
<path d="M87.8348 95.7842H89.0087V101.236H88.254V96.6648H88.2121L86.4093 101.236H85.9061L84.0613 96.6648V101.236H83.3066V95.7842H84.5225L86.1577 99.9778H86.1996L87.8348 95.7842Z" fill="#00643C"/>
</svg>
