<svg width="28" height="11" viewBox="0 0 28 11" fill="none" xmlns="http://www.w3.org/2000/svg">
<g clip-path="url(#clip0_146_33)">
<path d="M22.2832 3.46439V0H22.9797V2.97806C22.7868 3.07642 22.5243 3.26221 22.2832 3.46439ZM21.0723 4.50807C21.2866 4.24579 21.5063 3.9835 21.7688 3.75946V0H21.0723V4.50807ZM13.0034 7.2621C13.0034 8.18557 13.3624 9.06533 14.0214 9.73744C14.6751 10.4041 15.5377 10.7757 16.4485 10.7757C16.8343 10.7757 17.2308 10.6937 17.5094 10.5516V9.84126C17.1825 9.98333 16.7861 10.0653 16.4485 10.0653C14.959 10.0653 13.7053 8.78664 13.7053 7.26756V6.62823C13.7053 5.10915 14.9644 3.8305 16.4485 3.8305C17.1879 3.8305 17.8791 4.12011 18.3934 4.64468C18.9078 5.16926 19.1917 5.87416 19.1917 6.62823V10.7811H19.8882V6.49163C19.8454 5.58455 19.465 4.73757 18.822 4.10371C18.1737 3.46985 17.3326 3.12013 16.4485 3.12013C15.5431 3.12013 14.6804 3.48624 14.0214 4.15836C13.3678 4.825 13.0034 5.70476 13.0034 6.6337V7.2621V7.2621ZM23.4298 5.55722C23.7459 5.23483 24.1531 5.05451 24.5549 5.05451C25.4175 5.05451 26.0873 5.74301 26.0873 6.6173V7.25663C26.0873 8.13639 25.4122 8.81943 24.5549 8.81943C24.137 8.81943 23.7352 8.58446 23.4191 8.16371C23.1404 7.79214 22.9583 7.28395 22.9315 6.83041L22.3689 7.54078C22.4814 8.07628 22.7547 8.59539 23.1458 8.95604C23.5476 9.32761 24.0513 9.53526 24.5549 9.53526C25.7872 9.53526 26.7891 8.51343 26.7891 7.2621V6.62277C26.7891 6.02716 26.5534 5.45887 26.1248 5.02718C25.6961 4.59004 25.1389 4.34961 24.5549 4.34961C24.1852 4.34961 23.6012 4.48622 22.9047 5.12554C22.7172 5.31679 22.2778 5.76487 22.0099 6.0818C21.5599 6.58452 20.9116 7.33313 20.3544 8.09267V9.20193C20.9705 8.39321 21.3241 7.93967 21.9081 7.25663C22.4225 6.6337 23.0654 5.88508 23.4298 5.55722V5.55722ZM6.97053 4.21846V3.37696C6.33831 3.0327 5.65251 2.8797 4.74168 2.8797C3.80941 2.8797 2.92537 3.22942 2.25564 3.85782C1.58056 4.49168 1.21087 5.32226 1.21087 6.20748V6.43698C1.21087 8.273 2.65212 9.76476 4.43092 9.76476C5.87218 9.76476 6.4669 9.2839 6.61691 9.1309V6.99434H4.25947V7.70471H5.96326V8.77572H5.9579C5.73823 8.86315 5.28282 9.04893 4.43092 9.04893C3.75584 9.04893 3.11825 8.78118 2.64677 8.28939C2.16992 7.7976 1.91274 7.14188 1.91274 6.43152V6.20202C1.91274 4.78675 3.20934 3.5846 4.74703 3.5846C5.80253 3.59007 6.43475 3.77039 6.97053 4.21846V4.21846ZM12.0497 5.05451C12.3123 5.05451 12.5373 5.09822 12.7195 5.18565C12.8052 4.96708 12.8963 4.78129 13.0249 4.56272C12.8374 4.42611 12.3819 4.33868 12.0497 4.33868C10.7799 4.33868 9.82089 5.31679 9.82089 6.6173V10.7702H10.5174V6.6173C10.5174 5.6993 11.1443 5.05451 12.0497 5.05451V5.05451ZM0 6.20748V6.43698C0 7.67192 0.460773 8.81943 1.29124 9.67733C2.1217 10.5298 3.23613 10.9997 4.42556 10.9997C5.38461 10.9997 6.23115 10.7811 6.9491 10.344C7.53846 9.98333 7.80099 9.62269 7.82243 9.5899V5.76487H4.25947V6.47523H7.12591V9.37679C6.78837 9.72105 5.99005 10.2948 4.43092 10.2948C3.41293 10.2948 2.46996 9.8959 1.77344 9.17461C1.08228 8.45878 0.701875 7.48613 0.701875 6.44245V6.21294C0.701875 5.2239 1.13586 4.24032 1.89667 3.51357C2.67356 2.77042 3.68618 2.36059 4.74703 2.36059C5.73823 2.36059 6.42403 2.51359 6.97589 2.85785V2.05459C6.39724 1.80323 5.70608 1.69394 4.74168 1.69394C2.16992 1.69394 0 3.75946 0 6.20748ZM18.672 10.7702V6.6173C18.672 5.33865 17.6915 4.33868 16.4378 4.33868C15.8538 4.33868 15.2966 4.57911 14.868 5.01626C14.4393 5.4534 14.2036 6.02169 14.2036 6.61184V7.25117C14.2036 8.48611 15.2269 9.52433 16.4325 9.52433C16.7646 9.52433 17.2147 9.44236 17.4933 9.2074V8.46971C17.2201 8.69375 16.8289 8.82489 16.4325 8.82489C15.5752 8.82489 14.9001 8.13639 14.9001 7.2621V6.62277C14.9001 5.74301 15.5752 5.05997 16.4325 5.05997C17.2951 5.05997 17.9648 5.74848 17.9648 6.62277V10.7757H18.672V10.7702ZM12.0497 3.81957C12.5212 3.81957 12.9338 3.92339 13.3035 4.1365C13.4749 3.91246 13.6517 3.7376 13.7857 3.60099C13.3946 3.29499 12.7302 3.1092 12.0551 3.1092C11.0853 3.1092 10.2067 3.46439 9.57979 4.11464C8.95828 4.75397 8.61538 5.64465 8.61538 6.62277V10.7757H9.3119V6.62277C9.30654 4.97254 10.4317 3.81957 12.0497 3.81957V3.81957ZM26.982 4.14743C26.3284 3.48078 25.4657 3.1092 24.5549 3.1092C23.8905 3.1092 23.2262 3.36056 22.8565 3.61192C22.0957 4.12557 21.4742 4.6884 20.349 6.16923V7.23477C21.3027 5.96705 22.2028 4.97254 22.8886 4.42064C23.3387 4.05453 23.9763 3.82503 24.5549 3.82503C26.0444 3.82503 27.2981 5.10915 27.2981 6.62277V7.2621C27.2981 8.01071 27.0088 8.71561 26.4837 9.24565C25.964 9.77022 25.2782 10.0598 24.5549 10.0598C23.3333 10.0598 22.2564 9.20193 21.9671 8.03803L21.4742 8.64457C21.8331 9.86858 23.1297 10.7702 24.5549 10.7702C25.4657 10.7702 26.323 10.3986 26.982 9.73197C27.6357 9.05986 28 8.18557 28 7.25663V6.6173C28 5.69383 27.6357 4.81408 26.982 4.14743Z" fill="#00BF73"/>
</g>
<defs>
<clipPath id="clip0_146_33">
<rect width="28" height="11" fill="white"/>
</clipPath>
</defs>
</svg>
