<svg width="59" height="13" viewBox="0 0 59 13" fill="none" xmlns="http://www.w3.org/2000/svg">
<g clip-path="url(#clip0_146_41)">
<path fill-rule="evenodd" clip-rule="evenodd" d="M16.2861 0.00964244C16.2957 0.00502748 16.307 0.00311104 16.3182 0.00420739C16.3293 0.00530374 16.3396 0.00934781 16.3475 0.0156764C16.3661 0.0309935 16.3652 0.0551295 16.3457 0.0697503C15.632 0.621629 13.9398 1.9078 12.9949 2.48242C12.8642 2.56225 11.9762 4.58991 11.2808 5.80297C10.691 6.832 9.7688 7.43447 7.37467 8.46304C5.7193 9.17296 4.62369 11.8467 3.06889 12.8509C3.05945 12.8568 3.04776 12.8601 3.03568 12.8602C3.0236 12.8603 3.01182 12.8573 3.00221 12.8515C2.99259 12.8458 2.98569 12.8376 2.9826 12.8285C2.97951 12.8193 2.9804 12.8095 2.98514 12.8008L6.43595 6.69554C6.07497 6.66932 5.11768 5.99629 4.04507 5.15293C4.04214 5.15049 4.04006 5.14751 4.03902 5.14425C4.03799 5.141 4.03804 5.13759 4.03917 5.13436C4.04101 5.12947 4.04525 5.12536 4.05094 5.12292C4.05664 5.12048 4.06333 5.11992 4.06954 5.12136L8.88552 6.36414C8.88729 6.36437 8.88936 6.36414 8.89083 6.36344C8.89437 6.36181 8.89584 6.35833 8.89378 6.35555L8.56554 5.91924C8.54004 5.8855 8.49994 5.86012 8.45259 5.84776L3.27622 4.51216C3.24705 4.50453 3.22064 4.49148 3.19925 4.4741C3.02525 4.33207 2.85302 4.18981 2.68226 4.04755C2.68007 4.04586 2.6787 4.04363 2.67836 4.04123C2.67802 4.03884 2.67875 4.03643 2.68042 4.03441C2.68208 4.03238 2.68459 4.03088 2.6875 4.03014C2.69042 4.02941 2.69357 4.02949 2.69642 4.03037L8.19512 5.44975C8.1966 5.4502 8.19821 5.45028 8.19974 5.44997C8.20127 5.44967 8.20264 5.44901 8.20368 5.44807C8.20471 5.44713 8.20535 5.44596 8.20551 5.44473C8.20566 5.44349 8.20533 5.44225 8.20456 5.44117L7.86924 4.99094C7.85057 4.96617 7.8208 4.94779 7.78578 4.93942L2.04583 3.45807C1.98647 3.44275 1.93308 3.41575 1.89071 3.37963C1.74075 3.25197 1.59143 3.12387 1.44273 2.99531C1.44034 2.99358 1.43872 2.9913 1.43808 2.9888C1.43744 2.9863 1.43783 2.9837 1.43919 2.98138C1.44273 2.97489 1.45217 2.9721 1.46013 2.97489L7.5006 4.53537C7.50165 4.53571 7.50278 4.53584 7.50391 4.53576C7.50504 4.53568 7.50613 4.53539 7.50709 4.53491C7.50878 4.53409 7.51 4.53278 7.5105 4.53127C7.51099 4.52975 7.51072 4.52814 7.50974 4.52678L7.17471 4.07795C7.15596 4.05259 7.12623 4.03339 7.09096 4.02387L0.898903 2.42579L0.791848 2.39678C0.754403 2.38669 0.720887 2.36919 0.694526 2.34596C0.467728 2.14819 0.242408 1.94937 0.0185786 1.74952C0.0145143 1.74577 0.0117316 1.74127 0.0104932 1.73643C0.00925483 1.7316 0.00960154 1.7266 0.0115006 1.7219C0.0129665 1.71837 0.0153092 1.7151 0.018393 1.71229C0.0214767 1.70947 0.02524 1.70716 0.0294648 1.7055C0.0336896 1.70384 0.0382916 1.70285 0.0430042 1.7026C0.0477168 1.70235 0.052446 1.70284 0.0569177 1.70403C1.11921 1.97951 8.59474 3.9213 9.18073 4.06866C9.18073 4.06866 8.21577 1.79431 12.6047 1.79431C12.7433 1.79431 15.2902 0.513249 16.2864 0.00964244H16.2861ZM45.389 4.11346C47.0627 4.11346 47.9908 4.95264 47.9908 6.04433C47.9908 7.6329 46.6504 8.7471 44.7237 8.7471C43.0483 8.7471 42.1217 7.90791 42.1217 6.81622C42.1217 5.22093 43.4621 4.11346 45.389 4.11346ZM58.8879 4.20513C58.9007 4.2049 58.9134 4.20698 58.925 4.21121C58.9367 4.21543 58.9469 4.22169 58.955 4.2295C58.9631 4.23732 58.9688 4.24648 58.9717 4.25629C58.9746 4.2661 58.9746 4.27631 58.9717 4.28612L58.8228 4.93594C58.8199 4.95178 58.8098 4.96628 58.7944 4.97674C58.779 4.98719 58.7593 4.9929 58.739 4.99279H56.0505C56.0304 4.99335 56.011 4.99935 55.9958 5.00978C55.9805 5.02022 55.9703 5.03446 55.9668 5.05012L55.7651 5.95058C55.7621 5.96056 55.7621 5.97096 55.7651 5.98095C55.7681 5.99094 55.774 6.00024 55.7823 6.00812C55.7907 6.016 55.8013 6.02224 55.8132 6.02635C55.8252 6.03046 55.8382 6.03233 55.8512 6.0318H58.2931C58.3059 6.03158 58.3186 6.03366 58.3302 6.03788C58.3418 6.04211 58.3521 6.04837 58.3601 6.05618C58.3682 6.06399 58.3739 6.07315 58.3768 6.08297C58.3797 6.09278 58.3797 6.10298 58.3768 6.1128L58.2306 6.76145C58.2276 6.77732 58.2175 6.79182 58.2021 6.80227C58.1866 6.81272 58.1669 6.81842 58.1465 6.81831H55.64C55.6198 6.81887 55.6005 6.82486 55.5852 6.8353C55.57 6.84573 55.5598 6.85997 55.5563 6.87563L55.3569 7.78398C55.3541 7.79378 55.3542 7.80396 55.3572 7.81373C55.3601 7.8235 55.3659 7.83261 55.374 7.84037C55.3821 7.84813 55.3923 7.85434 55.4039 7.85852C55.4155 7.8627 55.4282 7.86475 55.441 7.86451H58.1456C58.1585 7.86421 58.1712 7.86623 58.1829 7.87042C58.1946 7.87462 58.2049 7.88087 58.213 7.8887C58.2212 7.89653 58.2269 7.90573 58.2298 7.91558C58.2327 7.92543 58.2326 7.93567 58.2297 7.94551L58.0805 8.6046C58.0776 8.62045 58.0675 8.63495 58.0521 8.6454C58.0367 8.65586 58.017 8.66157 57.9967 8.66146H53.9805C53.9677 8.66174 53.9549 8.65969 53.9433 8.65547C53.9316 8.65124 53.9213 8.64496 53.9132 8.63711C53.9051 8.62925 53.8994 8.62004 53.8966 8.61018C53.8937 8.60032 53.8938 8.59007 53.8968 8.58024L54.867 4.26175C54.8698 4.24591 54.8799 4.23141 54.8953 4.22098C54.9107 4.21055 54.9305 4.20492 54.9508 4.20513H58.8879ZM50.0065 4.20373C50.0499 4.20373 50.0862 4.22973 50.0903 4.26384L50.6583 7.65147C50.6559 7.66033 50.6558 7.66949 50.6581 7.67838C50.6603 7.68728 50.6648 7.69572 50.6713 7.7032C50.6778 7.71067 50.6862 7.71703 50.6959 7.72188C50.7057 7.72673 50.7166 7.72997 50.7279 7.7314C50.7393 7.73284 50.7509 7.73244 50.7621 7.73022C50.7733 7.72801 50.7838 7.72403 50.7929 7.71853C50.8021 7.71303 50.8097 7.70612 50.8154 7.69822C50.821 7.69032 50.8246 7.6816 50.8258 7.67258L52.9551 4.24481C52.9623 4.23316 52.9735 4.22331 52.9874 4.21638C53.0013 4.20945 53.0174 4.20571 53.0339 4.20559H54.2126C54.2282 4.20464 54.2438 4.20712 54.2577 4.21278C54.2716 4.21843 54.2833 4.22702 54.2913 4.23758C54.2993 4.24814 54.3034 4.26026 54.3032 4.27256C54.3029 4.28487 54.2983 4.29688 54.2899 4.30724L51.3803 8.62387C51.3731 8.63504 51.3621 8.64438 51.3485 8.65079C51.3348 8.65721 51.3192 8.66043 51.3033 8.66007H49.7467C49.7258 8.66078 49.7054 8.65527 49.6894 8.64465C49.6735 8.63403 49.6632 8.61907 49.6606 8.60275L48.7063 4.28426C48.7035 4.27448 48.7036 4.26433 48.7065 4.25458C48.7095 4.24482 48.7152 4.23573 48.7232 4.22797C48.7313 4.22021 48.7415 4.214 48.7531 4.2098C48.7646 4.2056 48.7773 4.20353 48.79 4.20373H50.0065ZM37.5183 4.19979C37.5649 4.19979 37.6024 4.22926 37.6024 4.2657L37.8678 7.28896C37.8701 7.3039 37.8785 7.31784 37.8917 7.3287C37.905 7.33956 37.9223 7.34676 37.9412 7.34922C37.96 7.35167 37.9794 7.34926 37.9964 7.34233C38.0133 7.3354 38.027 7.32433 38.0353 7.31078L39.6102 4.24667C39.6165 4.23336 39.628 4.222 39.6432 4.21427C39.6583 4.20653 39.6762 4.20284 39.6942 4.20373H41.6728C41.6856 4.20346 41.6984 4.20551 41.7101 4.20973C41.7218 4.21395 41.732 4.22024 41.7401 4.22809C41.7482 4.23594 41.7539 4.24516 41.7568 4.25502C41.7596 4.26488 41.7595 4.27513 41.7566 4.28496L40.7857 8.60344C40.7828 8.61931 40.7727 8.63381 40.7572 8.64423C40.7418 8.65466 40.722 8.66029 40.7016 8.66007H39.5919C39.5791 8.66029 39.5664 8.65821 39.5548 8.65399C39.5431 8.64976 39.5329 8.64351 39.5248 8.63569C39.5168 8.62788 39.511 8.61872 39.5081 8.60891C39.5053 8.59909 39.5052 8.58889 39.5081 8.57908L40.1416 5.8104C40.1449 5.80173 40.146 5.79263 40.1449 5.78362C40.1437 5.77462 40.1403 5.76588 40.1349 5.7579C40.1294 5.74993 40.122 5.74288 40.1131 5.73715C40.1042 5.73143 40.0939 5.72714 40.0829 5.72453C40.0719 5.72193 40.0603 5.72105 40.0489 5.72196C40.0374 5.72288 40.0263 5.72555 40.0162 5.72984C40.0061 5.73413 39.9971 5.73995 39.9898 5.74696C39.9826 5.75397 39.9771 5.76205 39.9738 5.77072L38.4196 8.61667C38.4131 8.62968 38.4015 8.64073 38.3865 8.6482C38.3715 8.65567 38.3538 8.65918 38.3361 8.65821H36.9665C36.9443 8.65821 36.923 8.65128 36.9072 8.63892C36.8915 8.62657 36.8826 8.60981 36.8825 8.5923L36.6053 5.74635C36.6058 5.73739 36.6041 5.72843 36.6002 5.71999C36.5964 5.71155 36.5905 5.70379 36.5828 5.69715C36.5751 5.69051 36.5659 5.68513 36.5556 5.68131C36.5452 5.67748 36.5341 5.67529 36.5227 5.67487C36.5113 5.67444 36.4999 5.67578 36.4892 5.67882C36.4785 5.68185 36.4686 5.68652 36.4602 5.69255C36.4517 5.69859 36.4449 5.70587 36.44 5.71399C36.4352 5.7221 36.4324 5.73089 36.4319 5.73985L35.801 8.59903C35.7984 8.61497 35.7884 8.62957 35.7729 8.6401C35.7575 8.65062 35.7377 8.65632 35.7173 8.65613H34.6099C34.5983 8.65583 34.587 8.65374 34.5764 8.64998C34.5659 8.64623 34.5565 8.64088 34.5486 8.63424C34.5407 8.6276 34.5345 8.6198 34.5305 8.61129C34.5264 8.60278 34.5245 8.59373 34.5249 8.58465L34.5261 8.57513L35.497 4.25641C35.4999 4.24061 35.51 4.22617 35.5254 4.21576C35.5408 4.20535 35.5604 4.19968 35.5807 4.19979H37.5183ZM22.4829 4.20373C22.5034 4.2036 22.5232 4.20935 22.5386 4.21991C22.554 4.23047 22.564 4.2451 22.5667 4.26106L23.5201 8.57838C23.5229 8.58816 23.5227 8.59829 23.5198 8.60803C23.5168 8.61776 23.5111 8.62684 23.503 8.63458C23.495 8.64233 23.4848 8.64854 23.4732 8.65275C23.4617 8.65697 23.4491 8.65907 23.4364 8.65891H22.2216C22.2011 8.65822 22.1814 8.65191 22.1662 8.64107C22.1509 8.63022 22.1409 8.61552 22.1379 8.5995L21.93 7.45838C21.927 7.44241 21.917 7.42777 21.9016 7.41703C21.8863 7.4063 21.8667 7.40015 21.8462 7.39966H20.5949C20.5738 7.39975 20.5531 7.3956 20.5347 7.38759C20.5163 7.37958 20.5008 7.368 20.4897 7.35393C20.4786 7.33987 20.4723 7.3238 20.4713 7.30727C20.4704 7.29073 20.4748 7.27428 20.4843 7.25949L20.8635 6.65864C20.8739 6.6426 20.8898 6.62913 20.9093 6.61972C20.9288 6.6103 20.9512 6.6053 20.9741 6.60526H21.6654L21.6748 6.60457C21.6979 6.60187 21.7186 6.59211 21.7326 6.57741C21.7465 6.56271 21.7525 6.54427 21.7492 6.52613L21.5321 5.33952C21.5356 5.32205 21.5302 5.3042 21.517 5.28986C21.5039 5.27551 21.4841 5.26584 21.4619 5.26293C21.4396 5.26019 21.4169 5.26452 21.3986 5.27496C21.3804 5.2854 21.3682 5.3011 21.3646 5.31863L20.7925 6.21166L20.727 6.31586L20.6064 6.50501V6.50849L19.3542 8.48996L19.2704 8.62178C19.2636 8.63343 19.2526 8.64327 19.2387 8.65007C19.2249 8.65687 19.2088 8.66035 19.1925 8.66007H18.0138C17.9986 8.66009 17.9837 8.65702 17.9705 8.65117C17.9573 8.64532 17.9463 8.63688 17.9384 8.62667C17.9306 8.61647 17.9262 8.60484 17.9258 8.59292C17.9254 8.58101 17.9288 8.5692 17.9359 8.55865L20.8467 4.23994C20.8615 4.21673 20.8921 4.20281 20.9249 4.20373H22.4829ZM32.9813 4.20373C33.0229 4.20489 33.058 4.2288 33.0651 4.26106L34.0141 8.57977C34.017 8.58953 34.0169 8.59967 34.014 8.60941C34.0111 8.61916 34.0054 8.62825 33.9974 8.636C33.9893 8.64374 33.9791 8.64994 33.9676 8.65411C33.956 8.65828 33.9434 8.66032 33.9307 8.66007H32.715C32.6942 8.66021 32.6741 8.65421 32.6586 8.64326C32.6431 8.63231 32.6333 8.6172 32.6313 8.60089L32.4225 7.45954C32.4202 7.44335 32.4104 7.42841 32.3949 7.4176C32.3794 7.4068 32.3594 7.4009 32.3387 7.40105H31.0824C31.0612 7.40102 31.0404 7.39671 31.022 7.38852C31.0036 7.38033 30.9881 7.36854 30.9772 7.3543C30.9662 7.34005 30.9601 7.32382 30.9594 7.30718C30.9587 7.29053 30.9635 7.27403 30.9733 7.25926L31.3528 6.65864C31.3735 6.62615 31.4159 6.60526 31.4625 6.60526H32.1538L32.1632 6.60457C32.1863 6.60187 32.207 6.59211 32.221 6.57741C32.2349 6.56271 32.2409 6.54427 32.2376 6.52613L32.0205 5.33952C32.024 5.32201 32.0186 5.30411 32.0053 5.28977C31.9921 5.27543 31.9721 5.26582 31.9499 5.26305C31.9276 5.26028 31.9049 5.26458 31.8867 5.275C31.8684 5.28543 31.8562 5.30112 31.8527 5.31863L31.3864 6.05292L31.2699 6.23673L31.1024 6.5064V6.51104L29.9528 8.33052L29.7688 8.62178C29.762 8.63356 29.7508 8.64349 29.7368 8.6503C29.7228 8.65712 29.7065 8.66052 29.6901 8.66007H28.5113C28.4957 8.66117 28.48 8.65879 28.466 8.6532C28.452 8.6476 28.4403 8.63901 28.4322 8.62843C28.4242 8.61784 28.4201 8.60568 28.4204 8.59334C28.4207 8.581 28.4254 8.56898 28.434 8.55865L31.3446 4.23994C31.3522 4.22895 31.3635 4.21979 31.3772 4.21342C31.3909 4.20704 31.4065 4.2037 31.4224 4.20373H32.9813ZM26.1841 4.20373C26.197 4.20346 26.2097 4.20551 26.2214 4.20973C26.2331 4.21395 26.2434 4.22024 26.2515 4.22809C26.2596 4.23594 26.2652 4.24516 26.2681 4.25502C26.2709 4.26488 26.2709 4.27513 26.2679 4.28496L25.4922 7.72666C25.4892 7.73646 25.4892 7.74668 25.492 7.75651C25.4948 7.76635 25.5005 7.77553 25.5086 7.78337C25.5166 7.7912 25.5269 7.79746 25.5385 7.80167C25.5502 7.80589 25.5629 7.80793 25.5757 7.80765H28.2473C28.263 7.80661 28.2787 7.80904 28.2926 7.81467C28.3066 7.8203 28.3183 7.8289 28.3263 7.83949C28.3344 7.85009 28.3385 7.86225 28.3382 7.87459C28.3379 7.88693 28.3332 7.89896 28.3246 7.9093L27.8427 8.6241C27.8359 8.63463 27.8257 8.64353 27.813 8.64986C27.8004 8.65619 27.7858 8.65972 27.7708 8.66007H24.1114C24.0986 8.66034 24.0859 8.65829 24.0743 8.65408C24.0626 8.64987 24.0523 8.64361 24.0442 8.63579C24.0362 8.62796 24.0305 8.61878 24.0276 8.60895C24.0247 8.59911 24.0248 8.5889 24.0277 8.57908L24.998 4.26036C25.0009 4.24455 25.011 4.23011 25.0264 4.21971C25.0418 4.2093 25.0614 4.20362 25.0817 4.20373H26.1841ZM15.6816 4.20373C15.6944 4.20346 15.7072 4.20551 15.7188 4.20973C15.7305 4.21395 15.7408 4.22024 15.7489 4.22809C15.757 4.23594 15.7627 4.24516 15.7655 4.25502C15.7684 4.26488 15.7683 4.27513 15.7653 4.28496L14.9979 7.72666C14.995 7.73648 14.995 7.7467 14.9978 7.75653C15.0007 7.76636 15.0064 7.77554 15.0145 7.78337C15.0226 7.79119 15.0329 7.79745 15.0445 7.80166C15.0562 7.80587 15.0689 7.80792 15.0817 7.80765H17.7534C17.769 7.80656 17.7847 7.80897 17.7987 7.8146C17.8127 7.82022 17.8244 7.82884 17.8324 7.83945C17.8404 7.85007 17.8445 7.86226 17.8441 7.87461C17.8438 7.88697 17.839 7.89899 17.8303 7.9093L17.3484 8.6241C17.3413 8.6351 17.3304 8.64431 17.3169 8.65067C17.3035 8.65703 17.288 8.66029 17.2723 8.66007H13.6142C13.6014 8.66029 13.5887 8.65821 13.5771 8.65399C13.5655 8.64976 13.5552 8.64351 13.5472 8.63569C13.5391 8.62788 13.5334 8.61872 13.5305 8.60891C13.5276 8.59909 13.5276 8.58889 13.5304 8.57908L14.4957 4.26036C14.4986 4.24455 14.5087 4.23011 14.5241 4.21971C14.5395 4.2093 14.5592 4.20362 14.5795 4.20373H15.6819H15.6816ZM45.3144 4.86237C44.0669 4.86237 43.4848 5.91716 43.4848 6.79394C43.4848 7.50386 43.944 8.00167 44.7974 8.00167C46.0373 8.00167 46.628 6.94874 46.628 6.07009C46.628 5.35344 46.1679 4.86237 45.3144 4.86237V4.86237Z" fill="#FF671D"/>
</g>
<defs>
<clipPath id="clip0_146_41">
<rect width="59" height="13" fill="white"/>
</clipPath>
</defs>
</svg>
