<svg width="64" height="40" viewBox="0 0 64 40" fill="none" xmlns="http://www.w3.org/2000/svg">
<path d="M37.0967 11.1755C38.3616 6.95597 39.2688 5.30674 39.2768 5.29083L40.4398 3.2298L31.6474 7.25836L32.2029 5.51762L24.2998 9.47656L23.8542 10.8691L17.188 13.9866L17.0901 14.1318C16.9343 14.2651 16.5966 14.7286 15.4276 16.342C13.3914 19.1551 9.59867 24.3892 6.10772 28.3382L3.75977 30.8787L12.66 27.2301C11.6109 29.7984 9.40884 35.0405 8.12396 37.1036L6.75315 39.2919L20.0715 33.077C21.0624 32.6444 21.9793 32.0605 22.7892 31.3462C22.8651 31.2766 22.939 31.2049 23.011 31.1333C23.2947 31.1722 23.5825 31.1722 23.8662 31.1333C23.9422 31.1214 24.0181 31.1075 24.094 31.0915C24.438 31.012 24.7728 30.8973 25.0931 30.7494L42.9076 22.4515L43.0255 22.2864C43.1154 22.1611 51.9877 9.6934 57.6028 3.33524L60.0047 0.589844L37.0967 11.1755Z" fill="#231F20"/>
<path d="M8.53159 37.3542C10.0303 34.953 12.704 28.4178 13.5272 26.3547L5.57617 29.6174L6.4594 28.6605C11.7528 22.9329 17.4118 14.5157 17.4698 14.4302L17.5138 14.3625L24.2479 11.2173L24.6955 9.81276L31.3996 6.45462L30.8601 8.14563L39.3007 4.27821L38.8571 5.05806C38.8471 5.07795 37.7861 6.97585 36.3393 12.0548L58.1383 1.98242L57.2291 3.01095C51.61 9.37707 42.7098 21.8766 42.6198 22.0019L42.5759 22.0636L24.8913 30.3017C24.6013 30.4378 24.2979 30.5438 23.9861 30.618C23.9242 30.632 23.8582 30.6439 23.7863 30.6539C23.4686 30.7016 23.1449 30.6908 22.8311 30.622C22.7132 30.7494 22.5873 30.8767 22.4534 30.998C21.679 31.679 20.8025 32.2354 19.8557 32.6473L8.01604 38.1898L8.53159 37.3542Z" fill="#00643C"/>
<path d="M38.6069 4.9127C38.6069 4.9127 37.4579 6.92997 35.8913 12.5779L57.0129 2.81785C51.3178 9.26753 42.3856 21.8327 42.3856 21.8327L24.785 30.033C24.5121 30.161 24.2269 30.261 23.9337 30.3315C23.8778 30.3434 23.8205 30.354 23.7619 30.3633C23.439 30.4113 23.1095 30.3917 22.7947 30.3056L22.7428 30.2937C22.5938 30.4651 22.435 30.6279 22.2672 30.7811C21.5134 31.438 20.662 31.9748 19.7434 32.3726L8.77695 37.5073C10.5914 34.5987 14.0543 25.8294 14.0543 25.8294L6.67278 28.8553C12.0361 23.0442 17.7092 14.5892 17.7092 14.5892L24.4852 11.4241L24.9408 10.0155L30.9156 7.01949L30.3861 8.67866L38.6049 4.9127M39.9857 3.64544L38.3631 4.38749L31.3353 7.60836L31.4671 7.19257L31.8828 5.88751L30.6539 6.50423L24.6751 9.50029L24.4573 9.60971L24.3833 9.84048L24.0117 11.0083L17.4634 14.068L17.3175 14.1356L17.2276 14.2689C17.0277 14.2689 11.3747 22.6662 6.23716 28.4654L4.4707 30.3792L6.8846 29.3845L12.9973 26.8778C11.9801 29.4104 9.64019 35.0285 8.28537 37.1949L7.25427 38.8481L9.02473 38.0205L19.9912 32.8958C20.9644 32.4713 21.8652 31.898 22.6608 31.1968C22.7587 31.1073 22.8607 31.0158 22.9426 30.9223C23.2392 30.968 23.5412 30.968 23.8378 30.9223C23.9097 30.9124 23.9817 30.8984 24.0516 30.8825C24.3805 30.8044 24.7006 30.693 25.0068 30.5503L25.0288 30.5403H25.0447L42.6294 22.3479L42.7673 22.2823L42.8552 22.1569C42.9451 22.0316 51.8354 9.54207 57.4425 3.18987L59.2589 1.13281L56.7631 2.28667L36.7945 11.5315C38.1373 6.95583 39.1005 5.22305 39.1105 5.20514L39.9857 3.64544Z" fill="#231F20"/>
<path d="M18.262 14.876L25.14 11.6611L25.5936 10.2407L29.8239 8.11994L29.3144 9.71147L37.3074 6.03106C37.3074 6.03106 36.3902 8.26517 34.9315 13.5471L54.6323 4.43555C54.6323 4.43555 51.517 7.34407 42.0013 21.0133L24.5765 29.1301C24.1069 29.3291 23.6373 29.528 23.0598 29.3709H23.0299C22.8827 29.3218 22.7468 29.244 22.6302 29.1421C22.4131 29.4594 22.1596 29.7505 21.8749 30.0095C21.1739 30.6209 20.3827 31.1215 19.5289 31.4936L10.5108 35.6992C12.3751 32.5599 15.2966 24.3178 15.2966 24.3178L9.3418 26.7946C11.6638 24.3595 18.264 14.876 18.264 14.876" fill="#F3F3F9"/>
<path d="M26.272 10.6938L28.4002 9.62746L27.9146 11.1513L29.5891 10.3715L29.1515 11.7462L27.479 12.526L26.298 16.2303C26.1561 16.6799 26.1601 16.7774 26.5358 16.6043L27.2752 16.2602C27.59 16.1022 27.8752 15.8916 28.1184 15.6375L27.461 17.3424L24.8253 18.5699C24.1579 18.8802 23.7223 18.7012 24.2798 16.9545L25.3788 13.5028L24.7274 13.8072L25.165 12.4325L25.8164 12.1282L26.272 10.6938ZM32.4387 9.0366L32.2668 9.74085H32.2848C32.4966 9.34297 32.7484 8.90132 33.0621 8.75808L34.7626 7.96232C35.7518 7.50276 35.8477 8.29853 35.3481 9.86619L34.4369 12.719C34.1292 13.6898 34.1452 13.9246 34.1532 14.225L31.5894 15.4186C31.912 14.8776 32.1625 14.2972 32.3347 13.6918L33.4338 10.2402C33.5717 9.80651 33.5297 9.69908 33.2719 9.82043L32.5066 10.1765C32.2468 10.2959 32.1069 10.4869 31.9751 10.9206L30.876 14.3702C30.5663 15.3411 30.5823 15.5758 30.5923 15.8762L28.0285 17.0699C28.351 16.5309 28.6015 15.9524 28.7739 15.349L29.9828 11.5552C30.2925 10.5844 30.2765 10.3496 30.2645 10.0512L32.4387 9.0366ZM15.1777 21.8067C14.9319 22.1628 14.6042 22.6701 14.4703 22.9247C14.3611 23.1114 14.2784 23.3122 14.2245 23.5215L12.2383 24.4466C12.8592 23.7453 13.4352 23.0057 13.9628 22.2324L18.6507 15.4843L20.8228 14.4717L19.0963 19.8312H19.1143L22.4793 13.7018L24.6774 12.6792L22.9949 17.9412C22.6472 19.0195 22.6312 19.1806 22.5952 19.6302L20.1194 20.7821C20.2393 20.5613 20.3312 20.4041 20.4391 20.1654C20.5674 19.8717 20.6762 19.57 20.7648 19.2622L21.714 16.2244H21.696L18.8725 21.357L16.4586 22.4791L17.8933 17.9949H17.8754L15.1777 21.8067Z" fill="#00643C"/>
<path d="M15.9968 25.312C16.5443 23.9771 16.6842 23.3584 16.5703 22.9645L22.7649 20.1157C24.5633 19.2781 24.8031 20.1495 23.814 23.068L22.4152 27.6317C22.0035 28.9825 20.9624 29.8877 19.162 30.7252L12.5938 33.7869C12.9434 33.1523 13.1732 32.5933 13.6968 31.2007L15.9968 25.312ZM17.0139 29.7226L18.6964 28.9387C19.226 28.694 19.3738 28.4533 19.6956 27.4904L20.8945 23.9731C21.2202 23.0083 21.2102 22.8412 20.6807 23.0898L19.2819 23.7165L17.0139 29.7226ZM26.8513 23.6668L26.5396 24.6456C26.3118 25.3936 26.4117 25.6124 26.9133 25.3777L29.9106 23.9851C30.4991 23.7256 31.0287 23.35 31.4673 22.881L30.4382 25.4672L24.2176 28.3638C22.8188 29.0163 22.7289 28.2245 23.4183 26.0481L24.7411 21.9221C25.4345 19.7476 26.1399 18.5858 27.5387 17.9333L32.2886 15.723C33.6873 15.0685 33.7773 15.8603 33.0879 18.0387L32.0708 21.2357L26.8513 23.6668ZM29.6868 20.609L30.1364 19.1866C30.3363 18.5898 30.3003 18.3908 29.9546 18.552L28.6697 19.1488C28.326 19.31 28.1422 19.6024 27.9503 20.2012L27.4987 21.6236L29.6868 20.609ZM46.63 10.9345C47.0077 10.3994 47.5073 9.63743 47.7111 9.25944C47.8776 8.98085 48.0034 8.68008 48.0848 8.36619L51.1901 6.92188C50.2345 7.97592 49.3475 9.0896 48.5344 10.2561L41.5545 20.2848L37.6659 22.0931L40.2396 14.1255L40.2077 14.1395L34.7324 23.4678L31.4633 24.9897L33.9671 17.1693C34.4846 15.5659 34.5066 15.3291 34.5666 14.6587L38.2454 12.9478C38.0675 13.2781 37.9316 13.5108 37.7718 13.8689C37.5799 14.3038 37.4177 14.7511 37.2862 15.2078L35.8734 19.7238L35.9014 19.7118L40.4974 11.9054L44.8156 9.89605L42.6675 16.5566L42.7015 16.5427L46.63 10.9345Z" fill="#ED1A37"/>
<path d="M18.262 14.876L25.14 11.6611L25.5936 10.2407L29.8239 8.11994L29.3144 9.71147L37.3074 6.03106C37.3074 6.03106 36.3902 8.26517 34.9315 13.5471L54.6323 4.43555C54.6323 4.43555 51.517 7.34407 42.0013 21.0133L24.5765 29.1301C24.1069 29.3291 23.6373 29.528 23.0598 29.3709H23.0299C22.8827 29.3218 22.7468 29.244 22.6302 29.1421C22.4131 29.4594 22.1596 29.7505 21.8749 30.0095C21.1739 30.6209 20.3827 31.1215 19.5289 31.4936L10.5108 35.7012C12.3751 32.5619 15.2966 24.3197 15.2966 24.3197L9.3418 26.7966C11.6638 24.3615 18.264 14.878 18.264 14.878" fill="white"/>
<path d="M26.272 10.6938L28.4002 9.62746L27.9146 11.1513L29.5891 10.3715L29.1515 11.7462L27.479 12.526L26.298 16.2303C26.1561 16.6799 26.1601 16.7774 26.5358 16.6043L27.2752 16.2602C27.59 16.1022 27.8752 15.8916 28.1184 15.6375L27.461 17.3424L24.8253 18.5699C24.1579 18.8802 23.7223 18.7012 24.2798 16.9545L25.3788 13.5028L24.7274 13.8072L25.165 12.4325L25.8164 12.1282L26.272 10.6938ZM32.4387 9.0366L32.2668 9.74085H32.2848C32.4966 9.34297 32.7484 8.90132 33.0621 8.75808L34.7626 7.96232C35.7518 7.50276 35.8477 8.29853 35.3481 9.86619L34.4369 12.719C34.1292 13.6898 34.1452 13.9246 34.1532 14.225L31.5894 15.4186C31.912 14.8776 32.1625 14.2972 32.3347 13.6918L33.4338 10.2402C33.5717 9.80651 33.5297 9.69908 33.2719 9.82043L32.5066 10.1765C32.2468 10.2959 32.1069 10.4869 31.9751 10.9206L30.876 14.3702C30.5663 15.3411 30.5823 15.5758 30.5923 15.8762L28.0285 17.0699C28.351 16.5309 28.6015 15.9524 28.7739 15.349L29.9828 11.5532C30.2925 10.5824 30.2765 10.3476 30.2645 10.0492L32.4387 9.0366ZM15.1777 21.8086C14.9319 22.1647 14.6042 22.672 14.4703 22.9267C14.3611 23.1134 14.2784 23.3142 14.2245 23.5235L12.2383 24.4486C12.8592 23.7473 13.4352 23.0077 13.9628 22.2344L18.6507 15.4843L20.8228 14.4717L19.0963 19.8312H19.1143L22.4793 13.7018L24.6774 12.6792L22.9949 17.9412C22.6472 19.0195 22.6312 19.1806 22.5952 19.6302L20.1154 20.7821C20.2353 20.5613 20.3272 20.4041 20.4351 20.1654C20.5634 19.8717 20.6722 19.57 20.7608 19.2622L21.71 16.2244H21.692L18.8685 21.357L16.4546 22.4791L17.8893 17.9949H17.8714L15.1777 21.8086Z" fill="#00643C"/>
<path d="M15.9968 25.312C16.5443 23.9771 16.6842 23.3584 16.5703 22.9645L22.7649 20.1157C24.5633 19.2781 24.8031 20.1495 23.814 23.068L22.4152 27.6317C22.0035 28.9825 20.9624 29.8877 19.162 30.7252L12.5938 33.7889C12.9434 33.1543 13.1732 32.5953 13.6968 31.2027L15.9968 25.312ZM17.0139 29.7226L18.6964 28.9387C19.226 28.694 19.3738 28.4533 19.6956 27.4904L20.8945 23.9731C21.2202 23.0083 21.2102 22.8412 20.6807 23.0898L19.2819 23.7165L17.0139 29.7226ZM26.8513 23.6668L26.5396 24.6456C26.3118 25.3936 26.4117 25.6124 26.9133 25.3777L29.9106 23.9851C30.4991 23.7256 31.0287 23.35 31.4673 22.881L30.4382 25.4672L24.2176 28.3638C22.8188 29.0163 22.7289 28.2245 23.4183 26.0481L24.7411 21.924C25.4345 19.7496 26.1399 18.5878 27.5387 17.9333L32.2886 15.723C33.6873 15.0685 33.7773 15.8603 33.0879 18.0387L32.0708 21.2357L26.8513 23.6668ZM29.6868 20.6071L30.1364 19.1886C30.3363 18.5918 30.3003 18.3928 29.9546 18.554L28.6697 19.1508C28.326 19.3119 28.1422 19.6044 27.9503 20.2032L27.4987 21.6256L29.6868 20.6071ZM46.63 10.9345C47.0077 10.3994 47.5073 9.63743 47.7111 9.25944C47.8776 8.98085 48.0034 8.68008 48.0848 8.36619L51.1901 6.92188C50.2345 7.97592 49.3475 9.0896 48.5344 10.2561L41.5545 20.2848L37.6659 22.0931L40.2396 14.1255L40.2077 14.1395L34.7324 23.4678L31.4633 24.9897L33.9671 17.1693C34.4846 15.5659 34.5066 15.3291 34.5666 14.6587L38.2454 12.9478C38.0675 13.2781 37.9316 13.5108 37.7718 13.8689C37.5799 14.3038 37.4177 14.7511 37.2862 15.2078L35.8734 19.7238L35.9014 19.7118L40.4974 11.9054L44.8156 9.89605L42.6675 16.5566L42.7015 16.5427L46.63 10.9345Z" fill="#ED1A37"/>
<path d="M44.7411 20.637C44.6134 20.637 44.4885 20.6748 44.3823 20.7455C44.2762 20.8162 44.1934 20.9167 44.1446 21.0342C44.0958 21.1517 44.0832 21.281 44.1083 21.4057C44.1333 21.5304 44.195 21.6449 44.2855 21.7347C44.3759 21.8245 44.4911 21.8855 44.6164 21.9101C44.7418 21.9347 44.8716 21.9217 44.9895 21.8727C45.1074 21.8238 45.2081 21.7411 45.2788 21.6352C45.3495 21.5292 45.387 21.4048 45.3866 21.2776C45.3891 21.1927 45.3741 21.1081 45.3425 21.0291C45.3109 20.9501 45.2634 20.8784 45.203 20.8184C45.1425 20.7584 45.0703 20.7114 44.9909 20.6802C44.9115 20.649 44.8265 20.6343 44.7411 20.637V20.637ZM44.7411 21.775C44.6086 21.775 44.4816 21.7226 44.3879 21.6293C44.2942 21.536 44.2416 21.4095 44.2416 21.2776C44.2416 21.1457 44.2942 21.0192 44.3879 20.926C44.4816 20.8327 44.6086 20.7803 44.7411 20.7803C44.8734 20.7805 45.0001 20.8331 45.0934 20.9264C45.1867 21.0196 45.239 21.146 45.2387 21.2776C45.2384 21.4093 45.1857 21.5354 45.092 21.6283C44.9983 21.7212 44.8714 21.7733 44.7391 21.773L44.7411 21.775Z" fill="#231F20"/>
<path d="M44.86 21.3214C44.8838 21.3225 44.9075 21.3184 44.9294 21.3094C44.9514 21.3003 44.9711 21.2866 44.9871 21.2691C45.0031 21.2516 45.0151 21.2309 45.0221 21.2083C45.0292 21.1857 45.0312 21.1618 45.0279 21.1384C45.0279 20.9832 44.92 20.9395 44.7441 20.9395H44.4844V21.6338H44.6342V21.3393H44.7022L44.864 21.6338H45.0379L44.86 21.3214ZM44.7621 21.216H44.6342V21.0489H44.7342C44.7921 21.0489 44.872 21.0489 44.872 21.1284C44.872 21.208 44.8301 21.216 44.7621 21.216Z" fill="#231F20"/>
</svg>
