<svg width="95" height="19" viewBox="0 0 95 19" fill="none" xmlns="http://www.w3.org/2000/svg">
<g clip-path="url(#clip0_144_108)">
<path d="M12.0689 2.57268C8.94662 2.5568 8.7663 2.57787 7.73156 3.0882C7.49852 3.20318 7.22623 3.35734 7.12632 3.43027C6.82732 3.64894 6.27913 4.20256 6.27913 4.28592C6.27913 4.32857 6.26281 4.36325 6.24292 4.36325C6.14711 4.36325 5.71564 5.19511 5.71487 5.38124C5.71458 5.4508 5.69869 5.52531 5.67962 5.54698C5.55231 5.69164 5.51206 6.95274 5.61751 7.49354C5.65314 7.67595 5.6983 7.90888 5.71814 8.01149C5.75594 8.20632 5.92037 8.55863 6.10844 8.84879C6.16911 8.94235 6.23686 9.04857 6.25891 9.08503C6.35877 9.25008 7.02694 9.88345 7.30939 10.0803C7.70301 10.3547 8.1809 10.653 8.30339 10.7012C8.35505 10.7215 8.56075 10.8293 8.76042 10.9403C8.96015 11.0514 9.20509 11.1772 9.30495 11.2201C9.40481 11.263 9.74094 11.4235 10.0517 11.5767C11.7123 12.3951 11.8548 12.4795 11.9959 12.727C12.1413 12.9818 12.1457 13.2481 12.0082 13.4556C11.9527 13.5394 11.8769 13.6076 11.8394 13.6078C11.8018 13.608 11.758 13.6301 11.742 13.6566C11.7122 13.706 8.28875 13.6831 6.59172 13.6223L5.83514 13.5953V12.6898C5.83514 11.9125 5.82648 11.784 5.77448 11.784C5.74125 11.784 5.71429 11.8027 5.71429 11.8255C5.71429 11.8482 5.69359 11.867 5.66821 11.867C5.61813 11.867 5.18989 12.2256 5.13736 12.3115C5.11959 12.3405 5.04997 12.3936 4.98266 12.4294C4.91534 12.4652 4.75684 12.5922 4.63092 12.7111C4.50501 12.83 4.31761 12.9869 4.21433 13.0599C4.11105 13.133 4.02058 13.2073 4.01307 13.2251C3.99265 13.2738 3.59561 13.6083 3.55839 13.6083C3.54058 13.6083 3.46903 13.6702 3.39945 13.746C3.32963 13.8222 3.08205 14.0411 2.8491 14.2333C2.6161 14.4255 2.38961 14.6202 2.34546 14.6657C2.3013 14.7113 2.19841 14.7951 2.11694 14.8523C2.03547 14.9092 1.86646 15.0558 1.74123 15.1778L1.51367 15.4002L1.76805 15.6431C1.90792 15.7768 2.03528 15.8869 2.05112 15.8876C2.06701 15.8882 2.22118 16.0193 2.39389 16.1789C2.56661 16.3385 2.7294 16.4693 2.75598 16.4693C2.78251 16.4693 2.82806 16.5017 2.85709 16.5418C2.88608 16.5818 3.00949 16.6988 3.13121 16.8012C3.25293 16.9036 3.38881 17.0178 3.43359 17.0553C3.47827 17.093 3.63119 17.2237 3.77304 17.3457C3.91494 17.4678 4.10855 17.6274 4.20331 17.7003C4.29807 17.7733 4.43828 17.8973 4.51508 17.9762C4.59187 18.0551 4.7253 18.1668 4.81129 18.2241C4.89729 18.2813 5.07645 18.4315 5.20959 18.5584C5.34272 18.6853 5.47316 18.7895 5.49921 18.7899C5.52525 18.7902 5.58867 18.8454 5.64028 18.9126C5.82258 19.1497 5.83269 19.1093 5.84434 18.096L5.85518 17.153L6.0367 17.1583C6.13651 17.161 7.18487 17.1669 8.36656 17.1718C9.86247 17.178 10.5149 17.1945 10.5149 17.2254C10.5149 17.2762 11.7707 17.2416 12.4113 17.1732C12.9138 17.1196 13.5465 16.9921 13.6418 16.9254C13.664 16.9098 13.7913 16.8533 13.9245 16.7997C14.0576 16.7461 14.1757 16.6909 14.1868 16.677C14.2258 16.6284 14.5147 16.4688 14.5639 16.4688C14.5913 16.4688 14.677 16.4086 14.7543 16.3345C14.8317 16.2604 14.9643 16.1434 15.0491 16.075C15.224 15.9341 15.6621 15.3714 15.7911 15.1218C15.922 14.8686 16.1203 14.2276 16.1857 13.8463C16.3164 13.0827 16.2325 12.0751 15.9868 11.4562C15.9286 11.3097 15.881 11.174 15.881 11.1546C15.881 11.1119 15.6815 10.785 15.62 10.7271C15.5957 10.7043 15.4893 10.5694 15.3835 10.427C15.2777 10.2847 15.154 10.1479 15.1089 10.1232C15.0295 10.0795 14.9607 10.022 14.7031 9.78638C14.6361 9.72508 14.5148 9.6433 14.4341 9.60427C14.3534 9.56518 14.2245 9.47979 14.1473 9.41488C14.0701 9.34992 13.9923 9.29698 13.9743 9.29698C13.9562 9.29698 13.847 9.23182 13.7316 9.15202C13.6163 9.07222 13.497 9.00657 13.4664 9.00657C13.4017 9.00657 13.0832 8.83489 13.0635 8.78918C13.0561 8.77211 13.0244 8.75826 12.993 8.75826C12.9615 8.75826 12.9361 8.7395 12.9361 8.7167C12.9361 8.69394 12.9062 8.67514 12.8702 8.67514C12.8342 8.67514 12.7026 8.62235 12.5778 8.55774C11.9174 8.21626 11.5809 8.05057 11.5504 8.05191C11.5316 8.0527 11.4667 8.01728 11.4064 7.97315C11.3462 7.92912 11.2436 7.87974 11.1784 7.86346C11.1132 7.84724 10.8737 7.72939 10.6462 7.60159C10.4186 7.4738 10.1554 7.32869 10.0612 7.27937C9.96696 7.22999 9.83618 7.13179 9.7706 7.06099C9.66135 6.94304 9.65119 6.90742 9.65119 6.6368C9.65119 6.35331 9.65654 6.33664 9.78423 6.2271C9.85742 6.16427 9.97466 6.10455 10.0447 6.09377C10.1148 6.08293 11.3704 6.08377 12.835 6.0957L15.4979 6.11741L15.4904 4.38002L15.4824 2.64308L15.0061 2.61458C14.7434 2.599 13.4215 2.58025 12.068 2.57332L12.0689 2.57268ZM17.0093 2.58089L17.0229 8.2086C17.0348 13.2164 17.0434 13.8591 17.1005 14.0436C17.2203 14.4301 17.3458 14.7447 17.4612 14.9457C17.5243 15.0558 17.5763 15.1643 17.5763 15.1868C17.5763 15.3315 18.6313 16.469 18.7655 16.469C18.7802 16.469 18.8685 16.5203 18.9616 16.5831C19.4158 16.8889 19.5903 16.976 20.084 17.1454C20.6258 17.3313 21.1206 17.4544 21.6108 17.5247C22.1357 17.6 23.4289 17.6008 23.9105 17.5262C24.6168 17.4167 25.1364 17.281 25.5102 17.1082C25.5801 17.0759 25.6681 17.0493 25.7053 17.0493C25.7857 17.0493 26.4372 16.6987 26.5531 16.5932C26.5975 16.5528 26.7005 16.485 26.7817 16.4424C26.9749 16.3411 27.6522 15.6954 27.7324 15.536C27.7668 15.4676 27.8342 15.3712 27.8819 15.3215C27.998 15.2008 28.2749 14.6777 28.3357 14.4639C28.3625 14.3696 28.4302 14.1246 28.4862 13.9194L28.5882 13.5459L28.5897 8.06364L28.5911 2.58089H24.3545V7.8222C24.3545 11.0532 24.3397 13.1041 24.316 13.1682C24.2661 13.303 23.9976 13.6083 23.929 13.6083C23.8999 13.6083 23.8516 13.6333 23.8218 13.6639C23.6811 13.8084 23.3379 13.878 22.761 13.878H22.1962L21.876 13.718C21.5397 13.5508 21.447 13.461 21.297 13.1565L21.2063 12.9724V2.58084H17.0082L17.0093 2.58089ZM29.9218 2.58138V17.257L33.7244 17.2555C37.5908 17.2542 37.9579 17.2418 38.4344 17.0937C38.5119 17.0695 38.6249 17.0497 38.6855 17.0497C38.7922 17.0497 39.1728 16.8917 39.5036 16.71L39.886 16.5003C40.075 16.3966 40.306 16.1973 40.6703 15.8235C40.78 15.7108 41.0266 15.3574 41.1513 15.1335C41.2589 14.9402 41.5028 14.2212 41.5843 13.8576C41.6534 13.5494 41.6896 12.7466 41.6516 12.3651C41.6225 12.0736 41.4502 11.4 41.3812 11.308C41.3641 11.2852 41.3269 11.1919 41.2989 11.1007C41.2224 10.8516 40.7408 10.2532 40.3971 9.98027C40.3115 9.91234 40.1989 9.81686 40.1469 9.76768C40.0949 9.71855 39.9791 9.64513 39.8892 9.60441C39.7993 9.56365 39.7256 9.51853 39.7256 9.50438C39.7256 9.47885 39.9494 9.29708 39.9809 9.29708C40.011 9.29708 40.6538 8.64501 40.6538 8.61443C40.6538 8.59791 40.6877 8.53478 40.7295 8.47432C40.8488 8.30146 41.0816 7.83501 41.1376 7.65636C41.1657 7.56701 41.2092 7.46752 41.234 7.43556C41.264 7.39687 41.2778 7.112 41.2759 6.58569C41.2731 5.84872 41.2657 5.7703 41.1663 5.44887C41.0437 5.05248 40.7612 4.44711 40.6133 4.26371C40.3532 3.94114 40.0466 3.63301 39.8168 3.46411C39.4974 3.2294 38.9373 2.94868 38.5157 2.81184C37.8657 2.60132 37.4275 2.58138 33.5082 2.58138H29.9215H29.9218ZM34.0776 5.76778L35.2174 5.78134C36.4539 5.79568 36.4446 5.7942 36.7371 6.04701C37.051 6.31848 37.1738 6.94428 37.0408 7.59793C36.9944 7.82646 36.7213 8.20627 36.5269 8.31299C36.364 8.40244 36.3096 8.40659 35.2174 8.41931L34.0776 8.43281V5.76778V5.76778ZM34.1077 11.2379C34.1243 11.2309 34.7205 11.2342 35.4323 11.2456L36.7263 11.2664L36.8961 11.3819C36.9895 11.4455 37.1333 11.6044 37.2153 11.7346L37.3644 11.9713L37.3648 12.5757C37.3653 13.1292 37.3574 13.1978 37.268 13.3942C37.2143 13.5122 37.1459 13.6087 37.1157 13.6087C37.0855 13.6087 37.0506 13.6354 37.0385 13.6677C37.0037 13.7609 36.7372 13.9221 36.5307 13.9749C36.4088 14.0061 35.9381 14.0233 35.2094 14.0233H34.0776V12.6371C34.0776 11.8746 34.0911 11.2449 34.1077 11.238V11.2379Z" fill="#FFCB08"/>
<path d="M87.5699 0.712392C87.5409 0.728669 87.5387 0.914891 87.5379 1.57527L87.537 2.49762L85.9134 2.49861C84.3509 2.49936 84.1431 2.51128 83.4522 2.63823C82.8813 2.74312 82.253 3.13124 81.8737 3.61372C81.5642 4.00733 81.3749 4.4486 81.2224 5.1303C81.2072 5.19873 81.1829 6.01936 81.1684 6.95417C81.1394 8.82599 81.1519 8.73525 80.8698 9.09597C80.6412 9.38836 80.0833 9.58641 79.4879 9.58636C79.1967 9.58636 78.6885 9.46549 78.5155 9.35541C78.2956 9.21555 78.0496 8.96234 78.002 8.82688C77.9696 8.73485 77.9497 7.78223 77.9352 5.64815L77.9145 2.60152L75.8465 2.59088L73.779 2.57975L73.7795 5.82403C73.78 7.60847 73.7968 9.18655 73.8171 9.33077C73.8616 9.64681 74.0312 10.2351 74.16 10.5198C74.4029 11.0572 74.9737 11.7286 75.4981 12.0949C75.6288 12.1861 75.7716 12.2942 75.8155 12.335C75.8595 12.3758 75.9411 12.4199 75.9971 12.4331C76.0529 12.4463 76.1726 12.5003 76.2632 12.5534C76.4521 12.664 76.977 12.8847 77.2586 12.9718L77.4505 13.0312V17.2564H81.6466V13.0472L81.9795 12.9288C82.4649 12.7563 83.4074 12.2729 83.661 12.0664C83.9823 11.8047 84.4991 11.2552 84.6479 11.017C84.832 10.7224 85.0935 10.1104 85.1704 9.7941C85.2801 9.3426 85.3168 8.79086 85.318 7.55568C85.3187 6.90584 85.33 6.33228 85.3434 6.28117C85.3828 6.12998 85.5923 6.10183 86.596 6.114L87.5167 6.12513L87.528 7.02715C87.5347 7.58111 87.554 7.92872 87.5783 7.92872C87.5889 7.92855 87.599 7.92409 87.6064 7.9163C87.6138 7.90851 87.6179 7.89804 87.6178 7.88716C87.6178 7.86435 87.6404 7.8457 87.6681 7.8456C87.6959 7.8455 87.8578 7.71474 88.0278 7.55519C88.1978 7.39568 88.3523 7.26532 88.3715 7.26532C88.3907 7.26532 88.5148 7.15994 88.6471 7.0315C88.7793 6.90302 88.9514 6.75553 89.0294 6.70344C89.1074 6.65134 89.2799 6.5047 89.4131 6.3778C89.5462 6.2509 89.6689 6.14725 89.6853 6.14685C89.7017 6.14646 89.8117 6.05755 89.9298 5.94925C90.1924 5.70831 90.9602 5.05292 91.1853 4.87764C91.2759 4.80704 91.4498 4.65248 91.5718 4.53409L91.7938 4.31863L91.5168 4.05097C91.3645 3.90359 91.2158 3.78282 91.1867 3.78282C91.1575 3.78282 91.1007 3.74037 91.0602 3.68862C91.0198 3.63682 90.8778 3.5065 90.7447 3.3987C90.6116 3.2909 90.4661 3.16785 90.4217 3.12526C90.3773 3.08261 90.1465 2.8858 89.9087 2.688C89.6708 2.4901 89.4227 2.27316 89.3571 2.20582C89.2915 2.13844 89.2217 2.08313 89.2019 2.08313C89.1822 2.08313 89.0282 1.95281 88.8596 1.79321C88.6911 1.6343 88.5346 1.50354 88.5153 1.50354C88.4947 1.50354 88.3705 1.39994 88.2393 1.27308C88.1082 1.14618 87.9284 0.994495 87.8396 0.936313C87.7509 0.878181 87.6467 0.790809 87.6083 0.742126C87.5917 0.721001 87.5794 0.707692 87.5698 0.713134L87.5699 0.712392ZM67.1049 2.14299C66.8577 2.13869 66.6104 2.14627 66.3639 2.1657C65.5713 2.22913 64.7839 2.39595 64.3288 2.59712C64.2463 2.63363 64.148 2.66381 64.1102 2.66381C64.0228 2.66381 63.4473 2.96669 63.2355 3.12427C63.1472 3.19002 63.0529 3.24404 63.0263 3.24404C62.9997 3.24404 62.9165 3.3046 62.841 3.37886C62.7655 3.45312 62.5899 3.61485 62.4512 3.73785C62.3126 3.86079 62.1992 3.97928 62.1992 4.00115C62.1992 4.02307 62.1294 4.12731 62.044 4.23309C61.7834 4.55576 61.6855 4.73842 61.5179 5.21337C61.2162 6.06779 61.2311 5.72761 61.2311 11.8093V17.2564H65.3863V13.0279H68.5739V17.2564H72.7296V11.8361C72.7295 7.13352 72.7211 6.36716 72.667 6.04929C72.5708 5.48365 72.2392 4.60573 72.0473 4.40852C72.0063 4.36637 71.8991 4.22057 71.8094 4.08481C71.7197 3.9491 71.6035 3.80914 71.5508 3.77367C71.4981 3.73824 71.3573 3.61396 71.2381 3.4978C71.119 3.38168 70.9852 3.27501 70.9409 3.26062C70.8967 3.24617 70.7775 3.1732 70.6757 3.09874C70.4398 2.92568 70.0257 2.71254 69.7898 2.64174C69.6136 2.58811 69.4379 2.53319 69.2625 2.47699C68.6173 2.27128 67.8565 2.15546 67.1078 2.14314L67.1049 2.14299ZM59.9426 2.57975L57.8535 2.59083L55.7639 2.60147L55.7437 7.86628L55.7234 13.1316L55.6148 13.321C55.4799 13.5567 55.4573 13.5755 55.1587 13.6901C54.6823 13.8732 53.8982 13.7846 53.6136 13.5157C53.5589 13.464 53.4806 13.347 53.4396 13.2558C53.3685 13.0975 53.3654 12.8567 53.3644 7.90067C53.3639 5.04674 53.3525 2.68261 53.339 2.64649C53.3172 2.58787 53.0963 2.58079 51.2611 2.58079H49.2077V7.77362C49.2077 11.0144 49.1927 13.0194 49.1683 13.1072C49.065 13.477 48.7389 13.7113 48.2367 13.7768C47.9346 13.8162 47.5332 13.7701 47.3457 13.6739C47.2755 13.638 47.1968 13.6087 47.1708 13.6087C47.0972 13.6087 46.9683 13.4404 46.8839 13.2352C46.8101 13.0557 46.8067 12.8537 46.7969 7.86648C46.7913 5.01626 46.7866 2.66153 46.7866 2.63308C46.7867 2.59232 46.3441 2.58094 44.7087 2.58094H42.6309V7.96523C42.6309 13.8863 42.6232 13.6741 42.8801 14.479C43.1011 15.1716 43.3851 15.6347 43.907 16.1526C44.0818 16.326 44.2373 16.4683 44.2526 16.4686C44.2679 16.4689 44.3973 16.5515 44.5404 16.6522C44.8887 16.8972 44.9606 16.9327 45.4658 17.1078C45.9766 17.2849 46.3167 17.3712 46.7866 17.4436H46.7871C47.2784 17.5193 48.3845 17.5189 48.8062 17.4431C49.3113 17.3523 50.172 17.0699 50.4538 16.9025C50.5288 16.8579 50.6738 16.7621 50.7763 16.6894C51.1471 16.4263 51.2547 16.3792 51.3556 16.4372C51.4058 16.4661 51.456 16.5012 51.4671 16.515C51.5166 16.5764 52.2642 17.0127 52.3548 17.0329C52.4103 17.0453 52.5011 17.075 52.5566 17.0991C52.7745 17.1936 53.2387 17.3359 53.5651 17.4083C54.0516 17.5163 55.4824 17.5173 56.0061 17.4098C56.3912 17.3307 56.8546 17.2001 57.0551 17.1141C57.1217 17.0856 57.249 17.0389 57.3377 17.0102C57.4265 16.9815 57.5624 16.9162 57.64 16.8653C57.7177 16.8143 57.9078 16.6905 58.0623 16.5899C58.2168 16.4893 58.4737 16.2765 58.6331 16.1169C58.957 15.7928 59.3749 15.246 59.3756 15.1457C59.3758 15.1098 59.4216 14.9983 59.4772 14.8984C59.595 14.6865 59.7471 14.2481 59.8453 13.8364C59.9086 13.5711 59.9156 13.0733 59.9286 8.06324L59.9427 2.58L59.9426 2.57975ZM66.7912 5.82131C66.8969 5.8172 67.0124 5.8178 67.1415 5.82279C67.5397 5.83813 67.6168 5.85411 67.8882 5.97978C68.2861 6.16392 68.3465 6.22522 68.4699 6.56728L68.5738 6.85572V9.62851H65.3839L65.3951 8.16704L65.4069 6.70596L65.5151 6.4765C65.6439 6.20325 65.6981 6.15091 66.0027 6.0054C66.2456 5.88944 66.4741 5.83368 66.7912 5.82136L66.7912 5.82131Z" fill="#00643C" stroke="#00643C" stroke-width="0.412413"/>
</g>
<defs>
<clipPath id="clip0_144_108">
<rect width="95" height="19" fill="white"/>
</clipPath>
</defs>
</svg>
