<svg width="45" height="43" viewBox="0 0 45 43" fill="none" xmlns="http://www.w3.org/2000/svg">
<path d="M25.8659 0.301758C30.9252 0.301758 35.7774 2.31159 39.3549 5.8891C42.9324 9.46662 44.9423 14.3188 44.9423 19.3781C44.9423 24.4375 42.9324 29.2897 39.3549 32.8672C35.7774 36.4447 30.9252 38.4545 25.8659 38.4545H24.7437V40.6764C24.7437 40.9742 24.685 41.2692 24.571 41.5443C24.4569 41.8195 24.2898 42.0695 24.079 42.28C23.8683 42.4905 23.6182 42.6574 23.3429 42.7712C23.0676 42.885 22.7726 42.9434 22.4748 42.9431C16.9538 42.9386 11.3611 41.0961 7.11715 37.3234C2.83506 33.5126 0.0611292 27.8503 0.0566406 20.5205V19.3781C0.0566406 14.3188 2.06647 9.46662 5.64399 5.8891C9.2215 2.31159 14.0737 0.301758 19.133 0.301758H25.8659ZM25.8659 4.79032H19.133C15.2641 4.79032 11.5536 6.32725 8.81788 9.063C6.08213 11.7987 4.5452 15.5092 4.5452 19.3781L4.54745 20.8706C4.63722 26.8 6.88374 31.109 10.102 33.9682C12.8805 36.4414 16.478 37.9159 20.2552 38.3311V36.2327C20.2552 34.9804 21.2696 33.966 22.5219 33.966H25.8659C29.7348 33.966 33.4453 32.429 36.181 29.6933C38.9168 26.9575 40.4537 23.2471 40.4537 19.3781C40.4537 15.5092 38.9168 11.7987 36.181 9.063C33.4453 6.32725 29.7348 4.79032 25.8659 4.79032V4.79032ZM14.6445 16.0117C15.5373 16.0117 16.3936 16.3664 17.0249 16.9977C17.6562 17.6291 18.0109 18.4853 18.0109 19.3781C18.0109 20.271 17.6562 21.1272 17.0249 21.7586C16.3936 22.3899 15.5373 22.7446 14.6445 22.7446C13.7516 22.7446 12.8954 22.3899 12.264 21.7586C11.6327 21.1272 11.278 20.271 11.278 19.3781C11.278 18.4853 11.6327 17.6291 12.264 16.9977C12.8954 16.3664 13.7516 16.0117 14.6445 16.0117ZM30.3544 16.0117C31.2473 16.0117 32.1035 16.3664 32.7349 16.9977C33.3662 17.6291 33.7209 18.4853 33.7209 19.3781C33.7209 20.271 33.3662 21.1272 32.7349 21.7586C32.1035 22.3899 31.2473 22.7446 30.3544 22.7446C29.4616 22.7446 28.6053 22.3899 27.974 21.7586C27.3427 21.1272 26.988 20.271 26.988 19.3781C26.988 18.4853 27.3427 17.6291 27.974 16.9977C28.6053 16.3664 29.4616 16.0117 30.3544 16.0117V16.0117Z" fill="#EDE9D0"/>
</svg>
