<svg width="29" height="29" viewBox="0 0 29 29" fill="none" xmlns="http://www.w3.org/2000/svg">
<path d="M12.6332 7.06L8.26349 2.01604C7.75974 1.43479 6.8362 1.43737 6.25108 2.02379L2.65766 5.62366C1.58816 6.69446 1.28203 8.2845 1.90074 9.55937C5.597 17.2125 11.7691 23.3932 19.417 27.1002C20.6906 27.7189 22.2794 27.4128 23.3489 26.342L26.9759 22.7085C27.5636 22.1208 27.5649 21.1921 26.9785 20.6884L21.9151 16.3419C21.3855 15.8872 20.5627 15.9467 20.0319 16.4788L18.27 18.2432C18.1798 18.3378 18.0611 18.4001 17.9321 18.4206C17.803 18.4412 17.6708 18.4188 17.5557 18.3569C14.6759 16.6985 12.287 14.3065 10.6324 11.4245C10.5704 11.3093 10.548 11.1768 10.5685 11.0476C10.5891 10.9183 10.6514 10.7994 10.7461 10.709L12.5027 8.951C13.0349 8.41625 13.093 7.58958 12.6332 7.05871V7.06Z" stroke="#EDE9D0" stroke-width="2" stroke-linecap="round" stroke-linejoin="round"/>
</svg>
