<svg width="23" height="27" viewBox="0 0 23 27" fill="none" xmlns="http://www.w3.org/2000/svg">
<g clip-path="url(#clip0_120_444)">
<path d="M4.71875 25.125H18.2812C18.9271 25.125 19.25 25.4479 19.25 26.0938C19.25 26.7396 18.9271 27.0625 18.2812 27.0625H4.71875C4.07292 27.0625 3.75 26.7396 3.75 26.0938C3.75 25.4479 4.07292 25.125 4.71875 25.125Z" fill="#EDE9D0"/>
<path d="M20.2188 10.5938C20.2187 8.28139 19.3002 6.06375 17.6651 4.42866C16.03 2.79358 13.8124 1.875 11.5 1.875C9.18764 1.875 6.97 2.79358 5.33491 4.42866C3.69983 6.06375 2.78125 8.28139 2.78125 10.5938C2.78125 14.1704 5.64294 18.832 11.5 24.4159C17.3571 18.832 20.2188 14.1704 20.2188 10.5938ZM11.5 27.0625C4.39519 20.6048 0.84375 15.1139 0.84375 10.5938C0.84375 7.76754 1.96646 5.05708 3.96489 3.05864C5.96333 1.06021 8.67379 -0.0625 11.5 -0.0625C14.3262 -0.0625 17.0367 1.06021 19.0351 3.05864C21.0335 5.05708 22.1562 7.76754 22.1562 10.5938C22.1562 15.1139 18.6048 20.6048 11.5 27.0625Z" fill="#EDE9D0"/>
<path d="M11.5 13.5C12.2708 13.5 13.01 13.1938 13.555 12.6488C14.1001 12.1038 14.4062 11.3645 14.4062 10.5938C14.4062 9.82296 14.1001 9.08375 13.555 8.53872C13.01 7.99369 12.2708 7.6875 11.5 7.6875C10.7292 7.6875 9.99 7.99369 9.44497 8.53872C8.89994 9.08375 8.59375 9.82296 8.59375 10.5938C8.59375 11.3645 8.89994 12.1038 9.44497 12.6488C9.99 13.1938 10.7292 13.5 11.5 13.5V13.5ZM11.5 15.4375C10.2154 15.4375 8.98333 14.9272 8.07495 14.0188C7.16657 13.1104 6.65625 11.8784 6.65625 10.5938C6.65625 9.30911 7.16657 8.07708 8.07495 7.1687C8.98333 6.26032 10.2154 5.75 11.5 5.75C12.7846 5.75 14.0167 6.26032 14.925 7.1687C15.8334 8.07708 16.3438 9.30911 16.3438 10.5938C16.3438 11.8784 15.8334 13.1104 14.925 14.0188C14.0167 14.9272 12.7846 15.4375 11.5 15.4375Z" fill="#EDE9D0"/>
</g>
<defs>
<clipPath id="clip0_120_444">
<rect width="23" height="27" fill="white"/>
</clipPath>
</defs>
</svg>
